{
  "accessors": [
    {
      "bufferView": 3,
      "componentType": 5126,
      "count": 562,
      "max": [
        3769.556640625,
        2925.042724609375,
        238.4388427734375
      ],
      "min": [
        -3769.55615234375,
        2448.1650390625,
        -238.4388427734375
      ],
      "type": "VEC3"
    },
    {
      "bufferView": 3,
      "byteOffset": 6744,
      "componentType": 5126,
      "count": 562,
      "max": [
        1.0,
        1.0,
        1.0
      ],
      "min": [
        -1.0,
        -1.0,
        -1.0
      ],
      "type": "VEC3"
    },
    {
      "bufferView": 4,
      "componentType": 5126,
      "count": 562,
      "max": [
        0.7623696327209473,
        1.0,
        1.0,
        1.0
      ],
      "min": [
        -0.7623695731163025,
        -1.0,
        -1.0,
        -1.0
      ],
      "type": "VEC4"
    },
    {
      "bufferView": 2,
      "componentType": 5126,
      "count": 562,
      "max": [
        0.9985591173171997,
        0.40111976861953735
      ],
      "min": [
        0.2537623643875122,
        3.294041380286217e-05
      ],
      "type": "VEC2"
    },
    {
      "bufferView": 1,
      "componentType": 5125,
      "count": 2544,
      "type": "SCALAR"
    },
    {
      "bufferView": 3,
      "byteOffset": 13488,
      "componentType": 5126,
      "count": 298,
      "max": [
        210.80990600585938,
        579.37109375,
        212.68739318847656
      ],
      "min": [
        -210.80990600585938,
        505.25518798828125,
        -210.80990600585938
      ],
      "type": "VEC3"
    },
    {
      "bufferView": 3,
      "byteOffset": 17064,
      "componentType": 5126,
      "count": 298,
      "max": [
        0.9964619278907776,
        1.0,
        0.9913428425788879
      ],
      "min": [
        -0.9964618682861328,
        -1.0,
        -0.9913428425788879
      ],
      "type": "VEC3"
    },
    {
      "bufferView": 4,
      "byteOffset": 8992,
      "componentType": 5126,
      "count": 298,
      "max": [
        0.9999582171440125,
        0.9964619278907776,
        1.0,
        1.0
      ],
      "min": [
        -0.9478599429130554,
        -0.9595953822135925,
        -1.0,
        -1.0
      ],
      "type": "VEC4"
    },
    {
      "bufferView": 2,
      "byteOffset": 4496,
      "componentType": 5126,
      "count": 298,
      "max": [
        0.7476886510848999,
        0.9995832443237305
      ],
      "min": [
        0.09951643645763397,
        0.002738082781434059
      ],
      "type": "VEC2"
    },
    {
      "bufferView": 1,
      "byteOffset": 10176,
      "componentType": 5125,
      "count": 954,
      "type": "SCALAR"
    },
    {
      "bufferView": 3,
      "byteOffset": 20640,
      "componentType": 5126,
      "count": 180,
      "max": [
        740.5428466796875,
        3043.097412109375,
        -1066.1903076171875
      ],
      "min": [
        -740.542724609375,
        3042.070068359375,
        -2622.048828125
      ],
      "type": "VEC3"
    },
    {
      "bufferView": 3,
      "byteOffset": 22800,
      "componentType": 5126,
      "count": 180,
      "max": [
        2.1783104386940977e-07,
        1.0,
        7.81750657097291e-07
      ],
      "min": [
        -2.1777356096208678e-07,
        -1.0,
        -7.821184340173204e-07
      ],
      "type": "VEC3"
    },
    {
      "bufferView": 4,
      "byteOffset": 13760,
      "componentType": 5126,
      "count": 180,
      "max": [
        0.995591938495636,
        1.4400188774743583e-07,
        -0.09379123896360397,
        1.0
      ],
      "min": [
        -0.9955918192863464,
        -2.9842473736607644e-07,
        -0.5881750583648682,
        -1.0
      ],
      "type": "VEC4"
    },
    {
      "bufferView": 2,
      "byteOffset": 6880,
      "componentType": 5126,
      "count": 180,
      "max": [
        0.9366024732589722,
        0.996701717376709
      ],
      "min": [
        0.8810890913009644,
        0.7781504392623901
      ],
      "type": "VEC2"
    },
    {
      "bufferView": 1,
      "byteOffset": 13992,
      "componentType": 5125,
      "count": 672,
      "type": "SCALAR"
    },
    {
      "bufferView": 3,
      "byteOffset": 24960,
      "componentType": 5126,
      "count": 368,
      "max": [
        211.02349853515625,
        596.6055908203125,
        211.02349853515625
      ],
      "min": [
        -211.02349853515625,
        143.49940490722656,
        -211.02349853515625
      ],
      "type": "VEC3"
    },
    {
      "bufferView": 3,
      "byteOffset": 29376,
      "componentType": 5126,
      "count": 368,
      "max": [
        0.9933796525001526,
        -0.11487770825624466,
        0.9933797121047974
      ],
      "min": [
        -0.9933796525001526,
        -1.0,
        -0.9933797121047974
      ],
      "type": "VEC3"
    },
    {
      "bufferView": 4,
      "byteOffset": 16640,
      "componentType": 5126,
      "count": 368,
      "max": [
        0.9978650808334351,
        0.9933797121047974,
        1.0,
        1.0
      ],
      "min": [
        -0.9978650808334351,
        -0.9863483309745789,
        -0.9978650808334351,
        1.0
      ],
      "type": "VEC4"
    },
    {
      "bufferView": 2,
      "byteOffset": 8320,
      "componentType": 5126,
      "count": 368,
      "max": [
        0.4694514274597168,
        0.9994591474533081
      ],
      "min": [
        -0.0007046813261695206,
        0.03958617523312569
      ],
      "type": "VEC2"
    },
    {
      "bufferView": 1,
      "byteOffset": 16680,
      "componentType": 5125,
      "count": 1434,
      "type": "SCALAR"
    },
    {
      "bufferView": 3,
      "byteOffset": 33792,
      "componentType": 5126,
      "count": 168,
      "max": [
        235.08033752441406,
        772.5794067382813,
        200.82623291015625
      ],
      "min": [
        -235.08038330078125,
        522.1387939453125,
        75.60591888427734
      ],
      "type": "VEC3"
    },
    {
      "bufferView": 3,
      "byteOffset": 35808,
      "componentType": 5126,
      "count": 168,
      "max": [
        0.9272786974906921,
        0.9272786974906921,
        0.5909872055053711
      ],
      "min": [
        -0.9272786974906921,
        -0.9272786974906921,
        -1.0
      ],
      "type": "VEC3"
    },
    {
      "bufferView": 4,
      "byteOffset": 22528,
      "componentType": 5126,
      "count": 168,
      "max": [
        0.9807857871055603,
        0.980785071849823,
        0.9270222783088684,
        1.0
      ],
      "min": [
        -0.9807857871055603,
        -0.9807850122451782,
        -5.782679934895896e-08,
        -1.0
      ],
      "type": "VEC4"
    },
    {
      "bufferView": 2,
      "byteOffset": 11264,
      "componentType": 5126,
      "count": 168,
      "max": [
        0.9978742599487305,
        0.9987322092056274
      ],
      "min": [
        0.943379819393158,
        0.7931362390518188
      ],
      "type": "VEC2"
    },
    {
      "bufferView": 1,
      "byteOffset": 22416,
      "componentType": 5125,
      "count": 756,
      "type": "SCALAR"
    },
    {
      "bufferView": 3,
      "byteOffset": 37824,
      "componentType": 5126,
      "count": 427,
      "max": [
        230.4359893798828,
        638.2794799804688,
        230.4359893798828
      ],
      "min": [
        -230.4359893798828,
        568.3858642578125,
        -230.4359893798828
      ],
      "type": "VEC3"
    },
    {
      "bufferView": 3,
      "byteOffset": 42948,
      "componentType": 5126,
      "count": 427,
      "max": [
        1.0,
        1.0,
        1.0
      ],
      "min": [
        -1.0,
        -1.0,
        -1.0
      ],
      "type": "VEC3"
    },
    {
      "bufferView": 4,
      "byteOffset": 25216,
      "componentType": 5126,
      "count": 427,
      "max": [
        0.9961212873458862,
        1.0,
        0.9961212873458862,
        1.0
      ],
      "min": [
        -0.9961212873458862,
        -2.4737966342058826e-08,
        -0.9982449412345886,
        1.0
      ],
      "type": "VEC4"
    },
    {
      "bufferView": 2,
      "byteOffset": 12608,
      "componentType": 5126,
      "count": 427,
      "max": [
        0.5638025999069214,
        0.9985175728797913
      ],
      "min": [
        0.3461877107620239,
        0.0692673921585083
      ],
      "type": "VEC2"
    },
    {
      "bufferView": 1,
      "byteOffset": 25440,
      "componentType": 5125,
      "count": 1524,
      "type": "SCALAR"
    },
    {
      "bufferView": 3,
      "byteOffset": 48072,
      "componentType": 5126,
      "count": 196,
      "max": [
        177.08412170410156,
        335.3309631347656,
        177.08412170410156
      ],
      "min": [
        -177.08412170410156,
        215.9688720703125,
        -177.08412170410156
      ],
      "type": "VEC3"
    },
    {
      "bufferView": 3,
      "byteOffset": 50424,
      "componentType": 5126,
      "count": 196,
      "max": [
        0.9826143980026245,
        1.0,
        0.9826145172119141
      ],
      "min": [
        -0.9826143980026245,
        -1.0,
        -0.9826145172119141
      ],
      "type": "VEC3"
    },
    {
      "bufferView": 4,
      "byteOffset": 32048,
      "componentType": 5126,
      "count": 196,
      "max": [
        1.0,
        0.9826143980026245,
        0.18564465641975403,
        1.0
      ],
      "min": [
        -0.18564459681510925,
        -0.18541498482227325,
        -1.0,
        -1.0
      ],
      "type": "VEC4"
    },
    {
      "bufferView": 2,
      "byteOffset": 16024,
      "componentType": 5126,
      "count": 196,
      "max": [
        0.43981924653053284,
        0.9873929023742676
      ],
      "min": [
        0.07889419794082642,
        0.15383054316043854
      ],
      "type": "VEC2"
    },
    {
      "bufferView": 1,
      "byteOffset": 31536,
      "componentType": 5125,
      "count": 564,
      "type": "SCALAR"
    },
    {
      "bufferView": 3,
      "byteOffset": 52776,
      "componentType": 5126,
      "count": 146,
      "max": [
        982.1903686523438,
        5466.29541015625,
        2115.351806640625
      ],
      "min": [
        -982.190673828125,
        5114.38818359375,
        1774.412353515625
      ],
      "type": "VEC3"
    },
    {
      "bufferView": 3,
      "byteOffset": 54528,
      "componentType": 5126,
      "count": 146,
      "max": [
        0.9432149529457092,
        0.99932861328125,
        0.9878756403923035
      ],
      "min": [
        -0.9432153105735779,
        -0.9996637105941772,
        -0.9878416061401367
      ],
      "type": "VEC3"
    },
    {
      "bufferView": 4,
      "byteOffset": 35184,
      "componentType": 5126,
      "count": 146,
      "max": [
        0.9440827369689941,
        0.8913059234619141,
        0.991533100605011,
        1.0
      ],
      "min": [
        -0.9440827965736389,
        -0.7186737656593323,
        -0.929563045501709,
        -1.0
      ],
      "type": "VEC4"
    },
    {
      "bufferView": 2,
      "byteOffset": 17592,
      "componentType": 5126,
      "count": 146,
      "max": [
        0.47506672143936157,
        0.033223941922187805
      ],
      "min": [
        0.3852209150791168,
        0.004378508776426315
      ],
      "type": "VEC2"
    },
    {
      "bufferView": 1,
      "byteOffset": 33792,
      "componentType": 5125,
      "count": 672,
      "type": "SCALAR"
    },
    {
      "bufferView": 3,
      "byteOffset": 56280,
      "componentType": 5126,
      "count": 964,
      "max": [
        237.98423767089844,
        796.633056640625,
        332.5297546386719
      ],
      "min": [
        -237.98419189453125,
        549.0303955078125,
        84.927001953125
      ],
      "type": "VEC3"
    },
    {
      "bufferView": 3,
      "byteOffset": 67848,
      "componentType": 5126,
      "count": 964,
      "max": [
        1.0,
        1.0,
        1.0
      ],
      "min": [
        -1.0,
        -1.0,
        -1.0
      ],
      "type": "VEC3"
    },
    {
      "bufferView": 4,
      "byteOffset": 37520,
      "componentType": 5126,
      "count": 964,
      "max": [
        1.0,
        0.9304842948913574,
        0.9810153841972351,
        1.0
      ],
      "min": [
        -1.0,
        -0.9742485284805298,
        -0.9810153841972351,
        -1.0
      ],
      "type": "VEC4"
    },
    {
      "bufferView": 2,
      "byteOffset": 18760,
      "componentType": 5126,
      "count": 964,
      "max": [
        0.334644615650177,
        0.1935230791568756
      ],
      "min": [
        0.14302001893520355,
        0.0018984857015311718
      ],
      "type": "VEC2"
    },
    {
      "bufferView": 1,
      "byteOffset": 36480,
      "componentType": 5125,
      "count": 5760,
      "type": "SCALAR"
    },
    {
      "bufferView": 3,
      "byteOffset": 79416,
      "componentType": 5126,
      "count": 716,
      "max": [
        4711.03076171875,
        2796.6171875,
        544.20458984375
      ],
      "min": [
        -4711.02978515625,
        2319.385498046875,
        -286.3033142089844
      ],
      "type": "VEC3"
    },
    {
      "bufferView": 3,
      "byteOffset": 88008,
      "componentType": 5126,
      "count": 716,
      "max": [
        0.9999909996986389,
        0.9999863505363464,
        0.9999426603317261
      ],
      "min": [
        -0.9999909996986389,
        -0.9999943375587463,
        -0.9999993443489075
      ],
      "type": "VEC3"
    },
    {
      "bufferView": 4,
      "byteOffset": 52944,
      "componentType": 5126,
      "count": 716,
      "max": [
        0.9999786019325256,
        0.9953200817108154,
        0.999989926815033,
        1.0
      ],
      "min": [
        -0.9999786019325256,
        -0.9995294213294983,
        -0.9999680519104004,
        -1.0
      ],
      "type": "VEC4"
    },
    {
      "bufferView": 2,
      "byteOffset": 26472,
      "componentType": 5126,
      "count": 716,
      "max": [
        0.9671684503555298,
        0.5963130593299866
      ],
      "min": [
        0.7361549139022827,
        0.39361727237701416
      ],
      "type": "VEC2"
    },
    {
      "bufferView": 1,
      "byteOffset": 59520,
      "componentType": 5125,
      "count": 3456,
      "type": "SCALAR"
    },
    {
      "bufferView": 3,
      "byteOffset": 96600,
      "componentType": 5126,
      "count": 588,
      "max": [
        2822.009033203125,
        918.947998046875,
        3767.168701171875
      ],
      "min": [
        -2822.009033203125,
        498.1912841796875,
        17.44359016418457
      ],
      "type": "VEC3"
    },
    {
      "bufferView": 3,
      "byteOffset": 103656,
      "componentType": 5126,
      "count": 588,
      "max": [
        0.9576528072357178,
        1.0,
        0.9999999403953552
      ],
      "min": [
        -0.9576526880264282,
        -1.0,
        -0.9999999403953552
      ],
      "type": "VEC3"
    },
    {
      "bufferView": 2,
      "byteOffset": 32200,
      "componentType": 5126,
      "count": 588,
      "max": [
        0.9878767132759094,
        0.9955828189849854
      ],
      "min": [
        0.01939721219241619,
        0.00910181924700737
      ],
      "type": "VEC2"
    },
    {
      "bufferView": 1,
      "byteOffset": 73344,
      "componentType": 5125,
      "count": 1800,
      "type": "SCALAR"
    },
    {
      "bufferView": 3,
      "byteOffset": 110712,
      "componentType": 5126,
      "count": 148,
      "max": [
        620.6497802734375,
        950.297119140625,
        52.003623962402344
      ],
      "min": [
        -620.6497192382813,
        369.2937316894531,
        -52.00358200073242
      ],
      "type": "VEC3"
    },
    {
      "bufferView": 3,
      "byteOffset": 112488,
      "componentType": 5126,
      "count": 148,
      "max": [
        1.0,
        1.0,
        1.0
      ],
      "min": [
        -1.0,
        -1.0,
        -1.0
      ],
      "type": "VEC3"
    },
    {
      "bufferView": 4,
      "byteOffset": 64400,
      "componentType": 5126,
      "count": 148,
      "max": [
        0.9999362826347351,
        1.0,
        0.9990449547767639,
        1.0
      ],
      "min": [
        -0.9999362826347351,
        -0.4233638644218445,
        -0.9803389310836792,
        -1.0
      ],
      "type": "VEC4"
    },
    {
      "bufferView": 2,
      "byteOffset": 36904,
      "componentType": 5126,
      "count": 148,
      "max": [
        0.5770612955093384,
        0.19726541638374329
      ],
      "min": [
        0.4795686602592468,
        0.1695418655872345
      ],
      "type": "VEC2"
    },
    {
      "bufferView": 1,
      "byteOffset": 80544,
      "componentType": 5125,
      "count": 864,
      "type": "SCALAR"
    },
    {
      "bufferView": 3,
      "byteOffset": 114264,
      "componentType": 5126,
      "count": 692,
      "max": [
        472.1828918457031,
        273.9555358886719,
        462.9768371582031
      ],
      "min": [
        -472.1829528808594,
        1.1401342153549194,
        -150.8681182861328
      ],
      "type": "VEC3"
    },
    {
      "bufferView": 3,
      "byteOffset": 122568,
      "componentType": 5126,
      "count": 692,
      "max": [
        0.9971520304679871,
        1.0,
        0.9999943375587463
      ],
      "min": [
        -0.9971520304679871,
        -1.0,
        -1.0
      ],
      "type": "VEC3"
    },
    {
      "bufferView": 4,
      "byteOffset": 66768,
      "componentType": 5126,
      "count": 692,
      "max": [
        1.0,
        0.9998127222061157,
        0.9998512864112854,
        1.0
      ],
      "min": [
        -1.0,
        -1.0,
        -0.9999891519546509,
        -1.0
      ],
      "type": "VEC4"
    },
    {
      "bufferView": 2,
      "byteOffset": 38088,
      "componentType": 5126,
      "count": 692,
      "max": [
        0.8756988048553467,
        0.9743660092353821
      ],
      "min": [
        0.5663403868675232,
        0.13219775259494781
      ],
      "type": "VEC2"
    },
    {
      "bufferView": 1,
      "byteOffset": 84000,
      "componentType": 5125,
      "count": 3216,
      "type": "SCALAR"
    },
    {
      "bufferView": 3,
      "byteOffset": 130872,
      "componentType": 5126,
      "count": 168,
      "max": [
        235.08033752441406,
        772.5794067382813,
        200.82623291015625
      ],
      "min": [
        -235.08038330078125,
        522.1387939453125,
        75.60592651367188
      ],
      "type": "VEC3"
    },
    {
      "bufferView": 3,
      "byteOffset": 132888,
      "componentType": 5126,
      "count": 168,
      "max": [
        0.9272786974906921,
        0.9272786974906921,
        0.5909872055053711
      ],
      "min": [
        -0.9272786974906921,
        -0.9272786974906921,
        -1.0
      ],
      "type": "VEC3"
    },
    {
      "bufferView": 4,
      "byteOffset": 77840,
      "componentType": 5126,
      "count": 168,
      "max": [
        0.9807857871055603,
        0.980785071849823,
        0.9270222783088684,
        1.0
      ],
      "min": [
        -0.9807857871055603,
        -0.9807850122451782,
        -6.780553007956769e-08,
        -1.0
      ],
      "type": "VEC4"
    },
    {
      "bufferView": 2,
      "byteOffset": 43624,
      "componentType": 5126,
      "count": 168,
      "max": [
        0.9978742599487305,
        0.9987322092056274
      ],
      "min": [
        0.943379819393158,
        0.7931362390518188
      ],
      "type": "VEC2"
    },
    {
      "bufferView": 1,
      "byteOffset": 96864,
      "componentType": 5125,
      "count": 756,
      "type": "SCALAR"
    },
    {
      "bufferView": 5,
      "componentType": 5126,
      "count": 85,
      "max": [
        1.0,
        0.0003879105788655579,
        0.00038791060796938837,
        0.0,
        0.0003879106370732188,
        1.0,
        0.00038791060796938837,
        0.0,
        0.0003879105788655579,
        0.00038791060796938837,
        1.0,
        0.0,
        1.856995701789856,
        1.5043697357177734,
        1.6339731216430664,
        1.0
      ],
      "min": [
        -0.0002605155168566853,
        -0.0003879105788655579,
        -0.00038791060796938837,
        0.0,
        -0.0003879106370732188,
        -0.0003879105788655579,
        -0.00038791060796938837,
        0.0,
        -0.0003879105788655579,
        -0.00037469284143298864,
        -0.0003879105788655579,
        0.0,
        -1.856995701789856,
        -1.789852261543274,
        -1.9511455297470093,
        1.0
      ],
      "type": "MAT4"
    },
    {
      "bufferView": 0,
      "componentType": 5123,
      "count": 562,
      "type": "VEC4"
    },
    {
      "bufferView": 4,
      "byteOffset": 80528,
      "componentType": 5126,
      "count": 562,
      "max": [
        1.0,
        0.4968191087245941,
        0.0,
        0.0
      ],
      "min": [
        0.5031808614730835,
        0.0,
        0.0,
        0.0
      ],
      "type": "VEC4"
    },
    {
      "bufferView": 0,
      "byteOffset": 4496,
      "componentType": 5123,
      "count": 298,
      "type": "VEC4"
    },
    {
      "bufferView": 4,
      "byteOffset": 89520,
      "componentType": 5126,
      "count": 298,
      "max": [
        1.0,
        0.0,
        0.0,
        0.0
      ],
      "min": [
        1.0,
        0.0,
        0.0,
        0.0
      ],
      "type": "VEC4"
    },
    {
      "bufferView": 0,
      "byteOffset": 6880,
      "componentType": 5123,
      "count": 180,
      "type": "VEC4"
    },
    {
      "bufferView": 4,
      "byteOffset": 94288,
      "componentType": 5126,
      "count": 180,
      "max": [
        1.0,
        0.4938810169696808,
        0.0,
        0.0
      ],
      "min": [
        0.5061189532279968,
        0.0,
        0.0,
        0.0
      ],
      "type": "VEC4"
    },
    {
      "bufferView": 0,
      "byteOffset": 8320,
      "componentType": 5123,
      "count": 368,
      "type": "VEC4"
    },
    {
      "bufferView": 4,
      "byteOffset": 97168,
      "componentType": 5126,
      "count": 368,
      "max": [
        1.0,
        0.5,
        0.0,
        0.0
      ],
      "min": [
        0.5,
        0.0,
        0.0,
        0.0
      ],
      "type": "VEC4"
    },
    {
      "bufferView": 0,
      "byteOffset": 11264,
      "componentType": 5123,
      "count": 168,
      "type": "VEC4"
    },
    {
      "bufferView": 4,
      "byteOffset": 103056,
      "componentType": 5126,
      "count": 168,
      "max": [
        1.0,
        0.0,
        0.0,
        0.0
      ],
      "min": [
        1.0,
        0.0,
        0.0,
        0.0
      ],
      "type": "VEC4"
    },
    {
      "bufferView": 0,
      "byteOffset": 12608,
      "componentType": 5123,
      "count": 427,
      "type": "VEC4"
    },
    {
      "bufferView": 4,
      "byteOffset": 105744,
      "componentType": 5126,
      "count": 427,
      "max": [
        1.0,
        0.0,
        0.0,
        0.0
      ],
      "min": [
        1.0,
        0.0,
        0.0,
        0.0
      ],
      "type": "VEC4"
    },
    {
      "bufferView": 0,
      "byteOffset": 16024,
      "componentType": 5123,
      "count": 196,
      "type": "VEC4"
    },
    {
      "bufferView": 4,
      "byteOffset": 112576,
      "componentType": 5126,
      "count": 196,
      "max": [
        1.0,
        0.0,
        0.0,
        0.0
      ],
      "min": [
        1.0,
        0.0,
        0.0,
        0.0
      ],
      "type": "VEC4"
    },
    {
      "bufferView": 0,
      "byteOffset": 17592,
      "componentType": 5123,
      "count": 146,
      "type": "VEC4"
    },
    {
      "bufferView": 4,
      "byteOffset": 115712,
      "componentType": 5126,
      "count": 146,
      "max": [
        1.0,
        0.0,
        0.0,
        0.0
      ],
      "min": [
        1.0,
        0.0,
        0.0,
        0.0
      ],
      "type": "VEC4"
    },
    {
      "bufferView": 0,
      "byteOffset": 18760,
      "componentType": 5123,
      "count": 964,
      "type": "VEC4"
    },
    {
      "bufferView": 4,
      "byteOffset": 118048,
      "componentType": 5126,
      "count": 964,
      "max": [
        1.0,
        0.0,
        0.0,
        0.0
      ],
      "min": [
        1.0,
        0.0,
        0.0,
        0.0
      ],
      "type": "VEC4"
    },
    {
      "bufferView": 0,
      "byteOffset": 26472,
      "componentType": 5123,
      "count": 716,
      "type": "VEC4"
    },
    {
      "bufferView": 4,
      "byteOffset": 133472,
      "componentType": 5126,
      "count": 716,
      "max": [
        1.0,
        0.4951077699661255,
        0.07460582256317139,
        0.0
      ],
      "min": [
        0.5048922300338745,
        0.0,
        0.0,
        0.0
      ],
      "type": "VEC4"
    },
    {
      "bufferView": 0,
      "byteOffset": 32200,
      "componentType": 5123,
      "count": 588,
      "type": "VEC4"
    },
    {
      "bufferView": 4,
      "byteOffset": 144928,
      "componentType": 5126,
      "count": 588,
      "max": [
        1.0,
        0.0,
        0.0,
        0.0
      ],
      "min": [
        1.0,
        0.0,
        0.0,
        0.0
      ],
      "type": "VEC4"
    },
    {
      "bufferView": 0,
      "byteOffset": 36904,
      "componentType": 5123,
      "count": 148,
      "type": "VEC4"
    },
    {
      "bufferView": 4,
      "byteOffset": 154336,
      "componentType": 5126,
      "count": 148,
      "max": [
        1.0,
        0.49957171082496643,
        0.0,
        0.0
      ],
      "min": [
        0.500428318977356,
        0.0,
        0.0,
        0.0
      ],
      "type": "VEC4"
    },
    {
      "bufferView": 0,
      "byteOffset": 38088,
      "componentType": 5123,
      "count": 692,
      "type": "VEC4"
    },
    {
      "bufferView": 4,
      "byteOffset": 156704,
      "componentType": 5126,
      "count": 692,
      "max": [
        1.0,
        0.5,
        0.0,
        0.0
      ],
      "min": [
        0.5,
        0.0,
        0.0,
        0.0
      ],
      "type": "VEC4"
    },
    {
      "bufferView": 0,
      "byteOffset": 43624,
      "componentType": 5123,
      "count": 168,
      "type": "VEC4"
    },
    {
      "bufferView": 4,
      "byteOffset": 167776,
      "componentType": 5126,
      "count": 168,
      "max": [
        1.0,
        0.0,
        0.0,
        0.0
      ],
      "min": [
        1.0,
        0.0,
        0.0,
        0.0
      ],
      "type": "VEC4"
    }
  ],
  "asset": {
    "extras": {
      "author": "🇧🇷 Fog 🇧🇷 (https://sketchfab.com/fog_)",
      "license": "CC-BY-4.0 (http://creativecommons.org/licenses/by/4.0/)",
      "source": "https://sketchfab.com/3d-models/capuccino-assassino-italian-brainrot-718dd1c48e974e98b61b79d151cd59fc",
      "title": "Capuccino Assassino | Italian Brainrot"
    },
    "generator": "Sketchfab-16.67.0",
    "version": "2.0"
  },
  "bufferViews": [
    {
      "buffer": 0,
      "byteLength": 44968,
      "byteStride": 8,
      "name": "shortBufferViews",
      "target": 34962
    },
    {
      "buffer": 0,
      "byteLength": 99888,
      "byteOffset": 44968,
      "name": "floatBufferViews",
      "target": 34963
    },
    {
      "buffer": 0,
      "byteLength": 44968,
      "byteOffset": 144856,
      "byteStride": 8,
      "name": "floatBufferViews",
      "target": 34962
    },
    {
      "buffer": 0,
      "byteLength": 134904,
      "byteOffset": 189824,
      "byteStride": 12,
      "name": "floatBufferViews",
      "target": 34962
    },
    {
      "buffer": 0,
      "byteLength": 170464,
      "byteOffset": 324728,
      "byteStride": 16,
      "name": "floatBufferViews",
      "target": 34962
    },
    {
      "buffer": 0,
      "byteLength": 5440,
      "byteOffset": 495192,
      "name": "floatBufferViews"
    }
  ],
  "buffers": [
    {
      "byteLength": 500632,
      "uri": "scene.bin"
    }
  ],
  "extensionsUsed": [
    "KHR_materials_specular"
  ],
  "images": [
    {
      "uri": "textures/CapuccinoAssasino_baseColor.png"
    },
    {
      "uri": "textures/CapuccinoAssasino_metallicRoughness.png"
    },
    {
      "uri": "textures/CapuccinoAssasino_normal.png"
    },
    {
      "uri": "textures/CapuccinoAssasino_specularf0.png"
    },
    {
      "uri": "textures/Katana_baseColor.png"
    },
    {
      "uri": "textures/Katana_metallicRoughness.png"
    }
  ],
  "materials": [
    {
      "doubleSided": true,
      "extensions": {
        "KHR_materials_specular": {
          "specularColorFactor": [
            1.0,
            1.0,
            1.0
          ],
          "specularFactor": 1.0,
          "specularTexture": {
            "index": 3
          }
        }
      },
      "name": "CapuccinoAssasino",
      "normalTexture": {
        "index": 2
      },
      "pbrMetallicRoughness": {
        "baseColorTexture": {
          "index": 0
        },
        "metallicFactor": 0.0,
        "metallicRoughnessTexture": {
          "index": 1
        }
      }
    },
    {
      "doubleSided": true,
      "name": "Katana",
      "pbrMetallicRoughness": {
        "baseColorTexture": {
          "index": 4
        },
        "metallicRoughnessTexture": {
          "index": 5
        },
        "roughnessFactor": 0.791804327265893
      }
    }
  ],
  "meshes": [
    {
      "name": "Arms_CapuccinoAssasino_0",
      "primitives": [
        {
          "attributes": {
            "JOINTS_0": 70,
            "NORMAL": 1,
            "POSITION": 0,
            "TANGENT": 2,
            "TEXCOORD_0": 3,
            "TEXCOORD_1": 3,
            "WEIGHTS_0": 71
          },
          "indices": 4,
          "material": 0,
          "mode": 4
        }
      ]
    },
    {
      "name": "Bandana_CapuccinoAssasino_0",
      "primitives": [
        {
          "attributes": {
            "JOINTS_0": 72,
            "NORMAL": 6,
            "POSITION": 5,
            "TANGENT": 7,
            "TEXCOORD_0": 8,
            "TEXCOORD_1": 8,
            "WEIGHTS_0": 73
          },
          "indices": 9,
          "material": 0,
          "mode": 4
        }
      ]
    },
    {
      "name": "BandanaBack_CapuccinoAssasino_0",
      "primitives": [
        {
          "attributes": {
            "JOINTS_0": 74,
            "NORMAL": 11,
            "POSITION": 10,
            "TANGENT": 12,
            "TEXCOORD_0": 13,
            "TEXCOORD_1": 13,
            "WEIGHTS_0": 75
          },
          "indices": 14,
          "material": 0,
          "mode": 4
        }
      ]
    },
    {
      "name": "Body_CapuccinoAssasino_0",
      "primitives": [
        {
          "attributes": {
            "JOINTS_0": 76,
            "NORMAL": 16,
            "POSITION": 15,
            "TANGENT": 17,
            "TEXCOORD_0": 18,
            "TEXCOORD_1": 18,
            "WEIGHTS_0": 77
          },
          "indices": 19,
          "material": 0,
          "mode": 4
        }
      ]
    },
    {
      "name": "BottomEyelids_CapuccinoAssasino_0",
      "primitives": [
        {
          "attributes": {
            "JOINTS_0": 78,
            "NORMAL": 21,
            "POSITION": 20,
            "TANGENT": 22,
            "TEXCOORD_0": 23,
            "TEXCOORD_1": 23,
            "WEIGHTS_0": 79
          },
          "indices": 24,
          "material": 0,
          "mode": 4
        }
      ]
    },
    {
      "name": "CupLid_CapuccinoAssasino_0",
      "primitives": [
        {
          "attributes": {
            "JOINTS_0": 80,
            "NORMAL": 26,
            "POSITION": 25,
            "TANGENT": 27,
            "TEXCOORD_0": 28,
            "TEXCOORD_1": 28,
            "WEIGHTS_0": 81
          },
          "indices": 29,
          "material": 0,
          "mode": 4
        }
      ]
    },
    {
      "name": "DetalBottom_CapuccinoAssasino_0",
      "primitives": [
        {
          "attributes": {
            "JOINTS_0": 82,
            "NORMAL": 31,
            "POSITION": 30,
            "TANGENT": 32,
            "TEXCOORD_0": 33,
            "TEXCOORD_1": 33,
            "WEIGHTS_0": 83
          },
          "indices": 34,
          "material": 0,
          "mode": 4
        }
      ]
    },
    {
      "name": "Eyebrows_CapuccinoAssasino_0",
      "primitives": [
        {
          "attributes": {
            "JOINTS_0": 84,
            "NORMAL": 36,
            "POSITION": 35,
            "TANGENT": 37,
            "TEXCOORD_0": 38,
            "TEXCOORD_1": 38,
            "WEIGHTS_0": 85
          },
          "indices": 39,
          "material": 0,
          "mode": 4
        }
      ]
    },
    {
      "name": "Eyes_CapuccinoAssasino_0",
      "primitives": [
        {
          "attributes": {
            "JOINTS_0": 86,
            "NORMAL": 41,
            "POSITION": 40,
            "TANGENT": 42,
            "TEXCOORD_0": 43,
            "TEXCOORD_1": 43,
            "WEIGHTS_0": 87
          },
          "indices": 44,
          "material": 0,
          "mode": 4
        }
      ]
    },
    {
      "name": "Hands_CapuccinoAssasino_0",
      "primitives": [
        {
          "attributes": {
            "JOINTS_0": 88,
            "NORMAL": 46,
            "POSITION": 45,
            "TANGENT": 47,
            "TEXCOORD_0": 48,
            "TEXCOORD_1": 48,
            "WEIGHTS_0": 89
          },
          "indices": 49,
          "material": 0,
          "mode": 4
        }
      ]
    },
    {
      "name": "Katana_Katana_0",
      "primitives": [
        {
          "attributes": {
            "JOINTS_0": 90,
            "NORMAL": 51,
            "POSITION": 50,
            "TEXCOORD_0": 52,
            "WEIGHTS_0": 91
          },
          "indices": 53,
          "material": 1,
          "mode": 4
        }
      ]
    },
    {
      "name": "Legs_CapuccinoAssasino_0",
      "primitives": [
        {
          "attributes": {
            "JOINTS_0": 92,
            "NORMAL": 55,
            "POSITION": 54,
            "TANGENT": 56,
            "TEXCOORD_0": 57,
            "TEXCOORD_1": 57,
            "WEIGHTS_0": 93
          },
          "indices": 58,
          "material": 0,
          "mode": 4
        }
      ]
    },
    {
      "name": "Shoes_CapuccinoAssasino_0",
      "primitives": [
        {
          "attributes": {
            "JOINTS_0": 94,
            "NORMAL": 60,
            "POSITION": 59,
            "TANGENT": 61,
            "TEXCOORD_0": 62,
            "TEXCOORD_1": 62,
            "WEIGHTS_0": 95
          },
          "indices": 63,
          "material": 0,
          "mode": 4
        }
      ]
    },
    {
      "name": "UpperEyelids_CapuccinoAssasino_0",
      "primitives": [
        {
          "attributes": {
            "JOINTS_0": 96,
            "NORMAL": 65,
            "POSITION": 64,
            "TANGENT": 66,
            "TEXCOORD_0": 67,
            "TEXCOORD_1": 67,
            "WEIGHTS_0": 97
          },
          "indices": 68,
          "material": 0,
          "mode": 4
        }
      ]
    }
  ],
  "nodes": [
    {
      "children": [
        1
      ],
      "matrix": [
        1.0,
        0.0,
        0.0,
        0.0,
        0.0,
        2.220446049250313e-16,
        -1.0,
        0.0,
        0.0,
        1.0,
        2.220446049250313e-16,
        0.0,
        0.0,
        0.0,
        0.0,
        1.0
      ],
      "name": "Sketchfab_model"
    },
    {
      "children": [
        2
      ],
      "matrix": [
        0.009999999776482582,
        0.0,
        0.0,
        0.0,
        0.0,
        0.0,
        0.009999999776482582,
        0.0,
        0.0,
        -0.009999999776482582,
        0.0,
        0.0,
        0.0,
        0.0,
        0.0,
        1.0
      ],
      "name": "a5fc2aaeb2db4440900a1ee96f1a9854.fbx"
    },
    {
      "children": [
        3
      ],
      "name": "RootNode"
    },
    {
      "children": [
        4
      ],
      "matrix": [
        100.0,
        0.0,
        0.0,
        0.0,
        0.0,
        -1.629206793918314e-05,
        -99.99999999999868,
        0.0,
        0.0,
        99.99999999999868,
        -1.629206793918314e-05,
        0.0,
        0.0,
        3.700180768966675,
        0.0,
        1.0
      ],
      "name": "Armature"
    },
    {
      "children": [
        5,
        91,
        93,
        95,
        97,
        99,
        101,
        103,
        105,
        107,
        109,
        111,
        113,
        115,
        117,
        90,
        92,
        94,
        96,
        98,
        100,
        102,
        104,
        106,
        108,
        110,
        112,
        114,
        116
      ],
      "name": "Object_4"
    },
    {
      "children": [
        6
      ],
      "name": "_rootJoint"
    },
    {
      "children": [
        7,
        79
      ],
      "name": "Root_01",
      "rotation": [
        0.7071068286895752,
        0.0,
        0.0,
        0.7071067094802856
      ]
    },
    {
      "children": [
        8,
        35,
        57
      ],
      "name": "Spine_02",
      "translation": [
        0.0,
        0.6645416617393494,
        0.0
      ]
    },
    {
      "children": [
        9,
        11,
        13,
        15,
        17,
        19,
        21,
        23,
        25,
        30
      ],
      "name": "Head_03",
      "translation": [
        0.0,
        0.5224569439888,
        0.0
      ]
    },
    {
      "children": [
        10
      ],
      "name": "Eye.L_04",
      "rotation": [
        0.7071067094802856,
        -1.1520229037387253e-07,
        -1.1520229037387253e-07,
        0.7071068286895752
      ],
      "scale": [
        1.0,
        0.9999999403953552,
        0.9999999403953552
      ],
      "translation": [
        0.2552989721298218,
        0.28036928176879883,
        0.4666913151741028
      ]
    },
    {
      "name": "Eye.L_end_062",
      "rotation": [
        1.3234889800848443e-23,
        -2.6971693930365565e-23,
        1.5777218104420236e-30,
        1.0
      ],
      "translation": [
        5.551115123125783e-17,
        0.38198918104171753,
        -2.220446049250313e-16
      ]
    },
    {
      "children": [
        12
      ],
      "name": "UpperEyelid.L_05",
      "rotation": [
        -3.9009375285559145e-08,
        -3.2584136988589307e-07,
        1.2710868632864834e-14,
        1.0
      ],
      "translation": [
        0.2552989721298218,
        0.28036928176879883,
        0.4666913151741028
      ]
    },
    {
      "name": "UpperEyelid.L_end_063",
      "rotation": [
        6.617444900424222e-24,
        5.293955920339377e-23,
        -6.310887241768095e-30,
        1.0
      ],
      "translation": [
        0.0,
        0.3819892406463623,
        -5.551115123125783e-17
      ]
    },
    {
      "children": [
        14
      ],
      "name": "LowerEyelid.L_06",
      "rotation": [
        0.70710688829422,
        5.3385068810030134e-08,
        -0.7071066498756409,
        5.338508657359853e-08
      ],
      "translation": [
        0.2552989721298218,
        0.28036928176879883,
        0.4666913151741028
      ]
    },
    {
      "name": "LowerEyelid.L_end_064",
      "rotation": [
        -1.823391437343893e-24,
        5.293955920339377e-23,
        0.0,
        1.0
      ],
      "translation": [
        5.551115123125783e-17,
        0.3819892406463623,
        5.551115123125783e-17
      ]
    },
    {
      "children": [
        16
      ],
      "name": "Eyebrow.L_07",
      "rotation": [
        0.0,
        -8.026784144021804e-07,
        0.0,
        1.0
      ],
      "scale": [
        0.9999998807907104,
        0.9999998807907104,
        1.0
      ],
      "translation": [
        0.2066677063703537,
        0.5658516883850098,
        0.6407549977302551
      ]
    },
    {
      "name": "Eyebrow.L_end_065",
      "rotation": [
        0.0,
        1.0587911840678754e-22,
        0.0,
        1.0
      ],
      "translation": [
        0.0,
        0.17377996444702148,
        0.0
      ]
    },
    {
      "children": [
        18
      ],
      "name": "Eye.R_08",
      "rotation": [
        0.7071067094802856,
        1.1520229037387253e-07,
        1.1520229037387253e-07,
        0.7071068286895752
      ],
      "scale": [
        1.0,
        0.9999999403953552,
        0.9999999403953552
      ],
      "translation": [
        -0.2552989721298218,
        0.28036928176879883,
        0.4666913151741028
      ]
    },
    {
      "name": "Eye.R_end_066",
      "rotation": [
        1.3234889800848443e-23,
        2.6971693930365565e-23,
        -1.5777218104420236e-30,
        1.0
      ],
      "translation": [
        -5.551115123125783e-17,
        0.38198918104171753,
        -2.220446049250313e-16
      ]
    },
    {
      "children": [
        20
      ],
      "name": "UpperEyelid.R_09",
      "rotation": [
        -3.9009375285559145e-08,
        3.2584136988589307e-07,
        -1.2710868632864834e-14,
        1.0
      ],
      "translation": [
        -0.2552989721298218,
        0.28036928176879883,
        0.4666913151741028
      ]
    },
    {
      "name": "UpperEyelid.R_end_067",
      "rotation": [
        6.617444900424222e-24,
        -5.293955920339377e-23,
        6.310887241768095e-30,
        1.0
      ],
      "translation": [
        0.0,
        0.3819892406463623,
        -5.551115123125783e-17
      ]
    },
    {
      "children": [
        22
      ],
      "name": "LowerEyelid.R_010",
      "rotation": [
        0.70710688829422,
        -5.3385068810030134e-08,
        0.7071066498756409,
        5.338508657359853e-08
      ],
      "scale": [
        0.9999999403953552,
        0.9999999403953552,
        1.0
      ],
      "translation": [
        -0.2552989721298218,
        0.28036928176879883,
        0.4666913151741028
      ]
    },
    {
      "name": "LowerEyelid.R_end_068",
      "rotation": [
        -1.8229479002999326e-24,
        -2.6469779601696886e-23,
        3.1554436208840472e-30,
        1.0
      ],
      "translation": [
        -5.551115123125783e-17,
        0.3819892406463623,
        5.551115123125783e-17
      ]
    },
    {
      "children": [
        24
      ],
      "name": "Eyebrow.R_011",
      "rotation": [
        0.0,
        8.026784144021804e-07,
        0.0,
        1.0
      ],
      "scale": [
        0.9999999403953552,
        0.9999999403953552,
        1.0
      ],
      "translation": [
        -0.2066677063703537,
        0.5658516883850098,
        0.6407549977302551
      ]
    },
    {
      "name": "Eyebrow.R_end_069",
      "rotation": [
        0.0,
        -2.117582368135751e-22,
        0.0,
        1.0
      ],
      "translation": [
        0.0,
        0.17377996444702148,
        0.0
      ]
    },
    {
      "children": [
        26
      ],
      "name": "Bandana.L_012",
      "rotation": [
        -0.7010573744773865,
        -0.09229595959186554,
        -0.09229593724012375,
        0.7010574340820313
      ],
      "scale": [
        0.9999949336051941,
        1.0000001192092896,
        1.0000001192092896
      ],
      "translation": [
        0.08758530765771866,
        0.7271449565887451,
        -0.7412882447242737
      ]
    },
    {
      "children": [
        27
      ],
      "name": "Bandana.L.002_013",
      "rotation": [
        -1.1518580821144944e-15,
        4.093691607920391e-09,
        -2.607705873458599e-08,
        1.0
      ],
      "scale": [
        0.9999975562095642,
        1.0000001192092896,
        0.9999997615814209
      ],
      "translation": [
        1.567190999196555e-08,
        0.24999995529651642,
        2.796984421848947e-09
      ]
    },
    {
      "children": [
        28
      ],
      "name": "Bandana.L.001_014",
      "rotation": [
        1.6682309661008709e-15,
        -1.6375145868181146e-15,
        -2.9802400547396246e-08,
        1.0
      ],
      "scale": [
        0.9999960660934448,
        0.9999986886978149,
        0.999998927116394
      ],
      "translation": [
        -5.2153978913338506e-08,
        0.2499999701976776,
        -1.1729047599828846e-07
      ]
    },
    {
      "children": [
        29
      ],
      "name": "Bandana.L.003_015",
      "rotation": [
        2.4705402031632297e-16,
        2.0817895086418627e-15,
        2.6077080050868062e-08,
        1.0
      ],
      "scale": [
        0.9999975562095642,
        0.9999987483024597,
        0.9999983906745911
      ],
      "translation": [
        -2.98022406752807e-08,
        0.24999995529651642,
        1.9188184374741013e-09
      ]
    },
    {
      "name": "Bandana.L.003_end_070",
      "rotation": [
        6.617444900424222e-24,
        4.963083675318166e-24,
        -4.163336342344337e-17,
        1.0
      ],
      "translation": [
        -5.551115123125783e-17,
        0.24999995529651642,
        2.220446049250313e-16
      ]
    },
    {
      "children": [
        31
      ],
      "name": "Bandana.R_016",
      "rotation": [
        -0.701057493686676,
        0.09229595959186554,
        0.09229595214128494,
        0.7010573744773865
      ],
      "scale": [
        0.9999949932098389,
        1.0000001192092896,
        1.0000001192092896
      ],
      "translation": [
        -0.08758530765771866,
        0.7271449565887451,
        -0.7412882447242737
      ]
    },
    {
      "children": [
        32
      ],
      "name": "Bandana.R.002_017",
      "rotation": [
        -1.3739027929186441e-15,
        -4.093692052009601e-09,
        1.490117895741605e-08,
        1.0
      ],
      "scale": [
        0.9999975562095642,
        1.0000001192092896,
        0.9999997615814209
      ],
      "translation": [
        -2.3122488812532538e-08,
        0.24999995529651642,
        -1.1641230912573519e-07
      ]
    },
    {
      "children": [
        33
      ],
      "name": "Bandana.R.001_018",
      "rotation": [
        1.4461857259011291e-15,
        2.525697241682976e-15,
        4.097829275906406e-08,
        1.0
      ],
      "scale": [
        0.9999961256980896,
        0.9999987483024597,
        0.9999990463256836
      ],
      "translation": [
        -2.2351823503186097e-08,
        0.24999995529651642,
        1.918813774537398e-09
      ]
    },
    {
      "children": [
        34
      ],
      "name": "Bandana.R.003_019",
      "rotation": [
        -8.601339661448132e-17,
        -1.6099404880114349e-15,
        -1.8626490572160037e-08,
        1.0
      ],
      "scale": [
        0.9999975562095642,
        0.9999987483024597,
        0.9999984502792358
      ],
      "translation": [
        1.4901079481433044e-08,
        0.24999994039535522,
        1.211281102087014e-07
      ]
    },
    {
      "name": "Bandana.R.003_end_071",
      "rotation": [
        -2.6469779601696886e-23,
        6.617444900424222e-24,
        -1.3877787807814457e-17,
        1.0
      ],
      "translation": [
        0.0,
        0.24999995529651642,
        2.220446049250313e-16
      ]
    },
    {
      "children": [
        36
      ],
      "name": "Shoulder.L_020",
      "rotation": [
        1.3636938245298325e-09,
        1.504667466178944e-07,
        -0.829037606716156,
        0.5591928362846375
      ],
      "scale": [
        1.0000001192092896,
        1.0,
        1.0
      ],
      "translation": [
        0.13367217779159546,
        0.50336092710495,
        -2.5657196367490087e-09
      ]
    },
    {
      "children": [
        37
      ],
      "name": "UpperArm.L_021",
      "rotation": [
        6.714222422488092e-08,
        8.962246766941462e-08,
        0.1908089965581894,
        0.9816272854804993
      ],
      "scale": [
        0.9999998211860657,
        0.9999999403953552,
        1.0
      ],
      "translation": [
        -1.4901142542100843e-08,
        0.43314123153686523,
        -4.973799150320701e-14
      ]
    },
    {
      "children": [
        38
      ],
      "name": "LowerArm.L_022",
      "rotation": [
        5.980415137716785e-15,
        2.28522351464863e-22,
        -1.4901140765744003e-08,
        1.0
      ],
      "translation": [
        2.9126150380420768e-08,
        0.44203755259513855,
        4.011116051393267e-14
      ]
    },
    {
      "children": [
        39,
        43,
        47,
        51,
        55
      ],
      "name": "Hand.L_023",
      "rotation": [
        -3.8998922882298402e-22,
        -1.4210854715202004e-14,
        3.9968071238153e-15,
        1.0
      ],
      "scale": [
        1.0,
        0.9999998807907104,
        1.0
      ],
      "translation": [
        4.1522341120980855e-14,
        0.43589818477630615,
        2.8421707736338113e-14
      ]
    },
    {
      "children": [
        40
      ],
      "name": "UpperMiddleFinger.L_024",
      "rotation": [
        2.694184786378173e-08,
        -9.499461128825715e-08,
        -0.08805263787508011,
        0.9961159229278564
      ],
      "translation": [
        4.418687638008123e-14,
        0.19368046522140503,
        1.0587911840678754e-22
      ]
    },
    {
      "children": [
        41
      ],
      "name": "MiddleMiddleFinger.L_025",
      "rotation": [
        -6.44411546346646e-09,
        1.1136123134747322e-08,
        -0.04707254841923714,
        0.9988914728164673
      ],
      "scale": [
        1.0,
        0.9999999403953552,
        1.0
      ],
      "translation": [
        2.9802343703977385e-08,
        0.07398170232772827,
        -2.1316282072803006e-14
      ]
    },
    {
      "children": [
        42
      ],
      "name": "LowerMiddleFinger.L_026",
      "rotation": [
        2.0045446191829797e-08,
        1.2500950496985297e-08,
        -0.18398216366767883,
        0.9829295873641968
      ],
      "scale": [
        1.0,
        0.9999999403953552,
        1.0
      ],
      "translation": [
        2.5757174171303632e-14,
        0.07617199420928955,
        2.842170943040401e-14
      ]
    },
    {
      "name": "LowerMiddleFinger.L_end_072",
      "rotation": [
        -6.617444900424222e-24,
        1.3234889800848443e-23,
        1.4967169785295768e-17,
        1.0
      ],
      "translation": [
        0.0,
        0.08462842553853989,
        0.0
      ]
    },
    {
      "children": [
        44
      ],
      "name": "UpperIndexFinger.L_00",
      "rotation": [
        4.203549863746048e-08,
        -9.632883291033068e-08,
        -0.08805263787508011,
        0.9961159229278564
      ],
      "translation": [
        -3.14394767997328e-08,
        0.19368046522140503,
        0.07833651453256607
      ]
    },
    {
      "children": [
        45
      ],
      "name": "MiddleIndexFinger.L_027",
      "rotation": [
        1.2353257305974807e-09,
        1.3630848627599335e-07,
        -0.04707254841923714,
        0.9988914728164673
      ],
      "scale": [
        1.0,
        0.9999999403953552,
        1.0
      ],
      "translation": [
        1.3303948165344082e-08,
        0.07398170232772827,
        2.057660708487674e-10
      ]
    },
    {
      "children": [
        46
      ],
      "name": "LowerIndexFinger.L_028",
      "rotation": [
        2.299932511107272e-08,
        -1.145451946626963e-07,
        -0.18398216366767883,
        0.9829295873641968
      ],
      "scale": [
        1.0,
        0.9999999403953552,
        1.0
      ],
      "translation": [
        8.121951111661474e-08,
        0.07617199420928955,
        3.8783980471635005e-09
      ]
    },
    {
      "name": "LowerIndexFinger.L_end_073",
      "rotation": [
        6.617444900424222e-24,
        -2.6469779601696886e-23,
        9.725256760375777e-18,
        1.0
      ],
      "translation": [
        0.0,
        0.08462842553853989,
        0.0
      ]
    },
    {
      "children": [
        48
      ],
      "name": "UpperPinkyFinger.L_029",
      "rotation": [
        4.203549863746048e-08,
        -9.632883291033068e-08,
        -0.08805263787508011,
        0.9961159229278564
      ],
      "translation": [
        2.9706681559105164e-08,
        0.19368046522140503,
        -0.07401876151561737
      ]
    },
    {
      "children": [
        49
      ],
      "name": "MiddlePinkyFinger.L_030",
      "rotation": [
        1.2353257305974807e-09,
        1.3630848627599335e-07,
        -0.04707254841923714,
        0.9988914728164673
      ],
      "scale": [
        1.0,
        0.9999999403953552,
        1.0
      ],
      "translation": [
        4.5391384873028073e-08,
        0.07398170232772827,
        2.057660569709796e-10
      ]
    },
    {
      "children": [
        50
      ],
      "name": "LowerPinkyFinger.L_031",
      "rotation": [
        2.299932511107272e-08,
        -1.145451946626963e-07,
        -0.18398216366767883,
        0.9829295873641968
      ],
      "scale": [
        1.0,
        0.9999999403953552,
        1.0
      ],
      "translation": [
        3.589596886399704e-08,
        0.07617199420928955,
        3.8783980471635005e-09
      ]
    },
    {
      "name": "LowerPinkyFinger.L_end_074",
      "rotation": [
        6.617444900424222e-24,
        -2.6469779601696886e-23,
        9.725256760375777e-18,
        1.0
      ],
      "translation": [
        0.0,
        0.08462842553853989,
        0.0
      ]
    },
    {
      "children": [
        52
      ],
      "name": "UpperThumb.L_032",
      "rotation": [
        0.40257909893989563,
        -0.03016158938407898,
        -0.21344341337680817,
        0.8896416425704956
      ],
      "scale": [
        1.0,
        1.0,
        0.9999999403953552
      ],
      "translation": [
        0.010658586397767067,
        0.09669464826583862,
        0.08869828283786774
      ]
    },
    {
      "children": [
        53
      ],
      "name": "MiddleThumb.L_033",
      "rotation": [
        -0.19783706963062286,
        -0.10496647655963898,
        -0.10612649470567703,
        0.968803346157074
      ],
      "translation": [
        5.21540641784668e-08,
        0.08572634309530258,
        9.685754776000977e-08
      ]
    },
    {
      "children": [
        54
      ],
      "name": "LowerThumb.L_034",
      "rotation": [
        -0.17369796335697174,
        -0.03272044286131859,
        -0.0033241226337850094,
        0.9842496514320374
      ],
      "scale": [
        1.0,
        1.0,
        1.0000001192092896
      ],
      "translation": [
        5.960464477539063e-08,
        0.07180539518594742,
        1.4901161193847656e-08
      ]
    },
    {
      "name": "LowerThumb.L_end_075",
      "rotation": [
        1.745609110971097e-36,
        -1.3010426069826053e-18,
        1.3417001884508117e-18,
        1.0
      ],
      "translation": [
        -2.220446049250313e-16,
        0.07921624928712845,
        2.7755575615628914e-17
      ]
    },
    {
      "children": [
        56
      ],
      "name": "Tool.L_035",
      "rotation": [
        0.7071067094802856,
        -2.6940025210642204e-10,
        2.8405906959960703e-07,
        0.7071068286895752
      ],
      "scale": [
        1.0,
        0.9999999403953552,
        0.9999999403953552
      ],
      "translation": [
        0.06139415130019188,
        0.22076316177845,
        0.01105095911771059
      ]
    },
    {
      "name": "Tool.L_end_076",
      "rotation": [
        0.0,
        1.2714271382901747e-24,
        -5.169878828456423e-26,
        1.0
      ],
      "translation": [
        0.0,
        1.917763590812683,
        2.220446049250313e-16
      ]
    },
    {
      "children": [
        58
      ],
      "name": "Shoulder.R_036",
      "rotation": [
        1.3636938245298325e-09,
        -1.504667466178944e-07,
        0.829037606716156,
        0.5591928362846375
      ],
      "scale": [
        1.0000001192092896,
        1.0,
        1.0
      ],
      "translation": [
        -0.13367217779159546,
        0.50336092710495,
        -2.5657196367490087e-09
      ]
    },
    {
      "children": [
        59
      ],
      "name": "UpperArm.R_037",
      "rotation": [
        6.714223843573563e-08,
        -8.962249609112405e-08,
        -0.19080904126167297,
        0.9816272854804993
      ],
      "scale": [
        0.9999997615814209,
        0.9999997615814209,
        0.9999999403953552
      ],
      "translation": [
        1.4901142542100843e-08,
        0.43314123153686523,
        -4.973799150320701e-14
      ]
    },
    {
      "children": [
        60
      ],
      "name": "LowerArm.R_038",
      "rotation": [
        5.980415137716785e-15,
        -1.4210854715202004e-14,
        1.4901145206636102e-08,
        1.0
      ],
      "scale": [
        1.0,
        0.9999999403953552,
        1.0
      ],
      "translation": [
        9.008314094671732e-08,
        0.44203755259513855,
        -2.5214027846403968e-15
      ]
    },
    {
      "children": [
        61,
        65,
        69,
        73,
        77
      ],
      "name": "Hand.R_039",
      "rotation": [
        4.570437436748653e-22,
        1.3234889800848443e-22,
        3.1086200220274652e-15,
        1.0
      ],
      "translation": [
        1.192092469182171e-07,
        0.4358981251716614,
        -1.4210856409267898e-14
      ]
    },
    {
      "children": [
        62
      ],
      "name": "UpperMiddleFinger.R_040",
      "rotation": [
        2.6941846087424892e-08,
        9.499458997197507e-08,
        0.08805263787508011,
        0.9961159229278564
      ],
      "translation": [
        1.192092469182171e-07,
        0.19368058443069458,
        -1.4210854715202004e-14
      ]
    },
    {
      "children": [
        63
      ],
      "name": "MiddleMiddleFinger.R_041",
      "rotation": [
        -6.44411590755567e-09,
        -1.1136123134747322e-08,
        0.047072552144527435,
        0.9988914728164673
      ],
      "scale": [
        1.0,
        0.9999999403953552,
        1.0
      ],
      "translation": [
        2.98022992950564e-08,
        0.07398180663585663,
        -2.1316282072803006e-14
      ]
    },
    {
      "children": [
        64
      ],
      "name": "LowerMiddleFinger.R_042",
      "rotation": [
        2.0045442639116118e-08,
        -1.2500946944271618e-08,
        0.18398219347000122,
        0.9829295873641968
      ],
      "scale": [
        1.0000001192092896,
        1.0000001192092896,
        1.0
      ],
      "translation": [
        -5.960467319710006e-08,
        0.0761721134185791,
        -4.973799150320701e-14
      ]
    },
    {
      "name": "LowerMiddleFinger.R_end_077",
      "rotation": [
        -1.3234889800848443e-23,
        1.3002858645239626e-39,
        -9.824679568665466e-17,
        1.0
      ],
      "translation": [
        -2.220446049250313e-16,
        0.08462842553853989,
        0.0
      ]
    },
    {
      "children": [
        66
      ],
      "name": "UpperIndexFinger.R_043",
      "rotation": [
        4.20354950847468e-08,
        9.632881869947596e-08,
        0.08805263787508011,
        0.9961159229278564
      ],
      "translation": [
        1.506487592450867e-07,
        0.19368058443069458,
        0.07833651453256607
      ]
    },
    {
      "children": [
        67
      ],
      "name": "MiddleIndexFinger.R_044",
      "rotation": [
        1.2353326139802334e-09,
        -1.3630847206513863e-07,
        0.047072552144527435,
        0.9988914728164673
      ],
      "scale": [
        1.0,
        0.9999999403953552,
        1.0
      ],
      "translation": [
        4.630069838640338e-08,
        0.07398180663585663,
        2.0578028170348261e-10
      ]
    },
    {
      "children": [
        68
      ],
      "name": "LowerIndexFinger.R_045",
      "rotation": [
        2.299932511107272e-08,
        1.145451946626963e-07,
        0.18398219347000122,
        0.9829295873641968
      ],
      "scale": [
        1.0000001192092896,
        1.0000001192092896,
        1.0
      ],
      "translation": [
        -2.1614859235796757e-08,
        0.0761721134185791,
        -3.572210971469758e-09
      ]
    },
    {
      "name": "LowerIndexFinger.R_end_078",
      "rotation": [
        1.9852334701272664e-23,
        1.3234889800848443e-23,
        1.2904404014609417e-16,
        1.0
      ],
      "translation": [
        0.0,
        0.08462842553853989,
        -1.3877787807814457e-17
      ]
    },
    {
      "children": [
        70
      ],
      "name": "UpperPinkyFinger.R_046",
      "rotation": [
        4.20354950847468e-08,
        9.632881869947596e-08,
        0.08805263787508011,
        0.9961159229278564
      ],
      "translation": [
        8.950260621531925e-08,
        0.19368058443069458,
        -0.07401876151561737
      ]
    },
    {
      "children": [
        71
      ],
      "name": "MiddlePinkyFinger.R_047",
      "rotation": [
        1.2353326139802334e-09,
        -1.3630847206513863e-07,
        0.047072552144527435,
        0.9988914728164673
      ],
      "scale": [
        1.0,
        0.9999999403953552,
        1.0
      ],
      "translation": [
        1.4213258126005712e-08,
        0.07398180663585663,
        2.0578029558127042e-10
      ]
    },
    {
      "children": [
        72
      ],
      "name": "LowerPinkyFinger.R_048",
      "rotation": [
        2.299932511107272e-08,
        1.145451946626963e-07,
        0.18398219347000122,
        0.9829295873641968
      ],
      "scale": [
        1.0000001192092896,
        1.0000001192092896,
        1.0
      ],
      "translation": [
        2.3708675911393584e-08,
        0.07617199420928955,
        3.87836962545407e-09
      ]
    },
    {
      "name": "LowerPinkyFinger.R_end_079",
      "rotation": [
        1.9852334701272664e-23,
        1.3234889800848443e-23,
        1.2904404014609417e-16,
        1.0
      ],
      "translation": [
        0.0,
        0.08462842553853989,
        0.0
      ]
    },
    {
      "children": [
        74
      ],
      "name": "UpperThumb.R_049",
      "rotation": [
        0.40257909893989563,
        0.03016158565878868,
        0.21344341337680817,
        0.8896416425704956
      ],
      "translation": [
        -0.010658467188477516,
        0.09669476747512817,
        0.08869828283786774
      ]
    },
    {
      "children": [
        75
      ],
      "name": "MiddleThumb.R_050",
      "rotation": [
        -0.19783706963062286,
        0.10496646910905838,
        0.10612650215625763,
        0.968803346157074
      ],
      "scale": [
        1.0,
        0.9999999403953552,
        0.9999998807907104
      ],
      "translation": [
        1.1175870895385742e-08,
        0.08572637289762497,
        -5.21540641784668e-08
      ]
    },
    {
      "children": [
        76
      ],
      "name": "LowerThumb.R_051",
      "rotation": [
        -0.17369797825813293,
        0.03272044658660889,
        0.0033240928314626217,
        0.9842496514320374
      ],
      "translation": [
        1.1920928955078125e-07,
        0.07180541008710861,
        -4.470348358154297e-08
      ]
    },
    {
      "name": "LowerThumb.R_end_080",
      "rotation": [
        -1.8626883483129968e-34,
        -1.734723475976807e-18,
        -1.0737667265753315e-16,
        1.0
      ],
      "translation": [
        0.0,
        0.07921624928712845,
        0.0
      ]
    },
    {
      "children": [
        78
      ],
      "name": "Tool.R_052",
      "rotation": [
        0.7071067094802856,
        2.6937010955130347e-10,
        -2.840590411778976e-07,
        0.7071068286895752
      ],
      "scale": [
        1.0,
        1.0,
        0.9999999403953552
      ],
      "translation": [
        -0.06139403209090233,
        0.22076328098773956,
        0.01105095911771059
      ]
    },
    {
      "name": "Tool.R_end_081",
      "rotation": [
        0.0,
        -4.0709318475224117e-23,
        0.0,
        1.0
      ],
      "translation": [
        0.0,
        1.917763590812683,
        0.0
      ]
    },
    {
      "children": [
        80,
        85
      ],
      "name": "Waist_053",
      "rotation": [
        1.0,
        -1.910685465164705e-15,
        -4.371138828673793e-08,
        -4.371138828673793e-08
      ],
      "translation": [
        0.0,
        0.6645416617393494,
        0.0
      ]
    },
    {
      "children": [
        81
      ],
      "name": "UpperLeg.L_054",
      "rotation": [
        1.3758106831573969e-07,
        4.371138828673793e-08,
        6.013859386606174e-15,
        1.0
      ],
      "translation": [
        0.33700963854789734,
        0.17409923672676086,
        1.0420370344377261e-08
      ]
    },
    {
      "children": [
        82
      ],
      "name": "LowerLeg.L_055",
      "rotation": [
        -1.3758106831573969e-07,
        1.6547864274448567e-21,
        -1.2027718773212348e-14,
        1.0
      ],
      "translation": [
        -8.104628079763643e-15,
        0.15431872010231018,
        7.105429898699844e-15
      ]
    },
    {
      "children": [
        83
      ],
      "name": "Foot.L_056",
      "rotation": [
        -0.45525237917900085,
        3.184181593951507e-07,
        -1.6281083503599802e-07,
        0.8903624415397644
      ],
      "scale": [
        1.0,
        0.9999999403953552,
        1.0
      ],
      "translation": [
        -5.551115123125783e-17,
        0.15025807917118073,
        2.2234614865425384e-21
      ]
    },
    {
      "children": [
        84
      ],
      "name": "Toes.L_057",
      "rotation": [
        -0.3076692521572113,
        -6.087252018005529e-07,
        -2.322827796774618e-08,
        0.9514933824539185
      ],
      "translation": [
        -1.1436540603426693e-08,
        0.2129954844713211,
        2.629320761116105e-09
      ]
    },
    {
      "name": "Toes.L_end_082",
      "rotation": [
        6.617444900424222e-24,
        2.799157432940236e-23,
        -0.0,
        1.0
      ],
      "translation": [
        0.0,
        0.22809629142284393,
        -1.3877787807814457e-17
      ]
    },
    {
      "children": [
        86
      ],
      "name": "UpperLeg.R_058",
      "rotation": [
        1.375810825265944e-07,
        4.371138828673793e-08,
        6.013860233639121e-15,
        1.0
      ],
      "translation": [
        -0.33700963854789734,
        0.17409923672676086,
        6.934500618172024e-08
      ]
    },
    {
      "children": [
        87
      ],
      "name": "LowerLeg.R_059",
      "rotation": [
        -1.375810825265944e-07,
        1.6547868313416402e-21,
        -1.2027720467278243e-14,
        1.0
      ],
      "scale": [
        1.0,
        1.0000001192092896,
        1.0000001192092896
      ],
      "translation": [
        -8.104628079763643e-15,
        0.15431872010231018,
        1.4210852174103162e-14
      ]
    },
    {
      "children": [
        88
      ],
      "name": "Foot.R_060",
      "rotation": [
        -0.45525237917900085,
        -3.184181593951507e-07,
        1.6281083503599802e-07,
        0.8903624415397644
      ],
      "scale": [
        1.0,
        0.9999999403953552,
        1.0
      ],
      "translation": [
        -2.9802322387695313e-08,
        0.15025804936885834,
        7.105425240018634e-15
      ]
    },
    {
      "children": [
        89
      ],
      "name": "Toes.R_061",
      "rotation": [
        -0.3076692819595337,
        6.087252018005529e-07,
        2.3228265533248305e-08,
        0.9514933824539185
      ],
      "scale": [
        0.9999999403953552,
        0.9999999403953552,
        1.0
      ],
      "translation": [
        1.143654770885405e-08,
        0.2129954695701599,
        6.354611059578019e-09
      ]
    },
    {
      "name": "Toes.R_end_083",
      "rotation": [
        0.0,
        -2.615766205138076e-23,
        0.0,
        1.0
      ],
      "translation": [
        0.0,
        0.22809629142284393,
        0.0
      ]
    },
    {
      "matrix": [
        0.038791054976172745,
        0.0,
        0.0,
        0.0,
        0.0,
        0.038791054976172745,
        0.0,
        0.0,
        0.0,
        0.0,
        0.038791054976172745,
        0.0,
        60.00000238418579,
        104.2162139415741,
        0.0,
        1.0
      ],
      "name": "Object_90"
    },
    {
      "mesh": 0,
      "name": "Object_91",
      "skin": 0
    },
    {
      "matrix": [
        0.5596787668764591,
        0.0,
        0.0,
        0.0,
        0.0,
        0.5596787668764591,
        0.0,
        0.0,
        0.0,
        0.0,
        0.5596787668764591,
        0.0,
        0.0,
        151.9351441860199,
        0.0,
        1.0
      ],
      "name": "Object_92"
    },
    {
      "mesh": 1,
      "name": "Object_93",
      "skin": 0
    },
    {
      "matrix": [
        0.06360829574987292,
        0.0,
        -0.017043791012838483,
        0.0,
        0.0,
        0.06585215451195836,
        0.0,
        0.0,
        0.017043791012838483,
        0.0,
        0.06360829574987292,
        0.0,
        -8.657053858041763,
        195.11453700065613,
        -74.12881851196289,
        1.0
      ],
      "name": "Object_94"
    },
    {
      "mesh": 2,
      "name": "Object_95",
      "skin": 0
    },
    {
      "matrix": [
        0.5596787668764591,
        0.0,
        0.0,
        0.0,
        0.0,
        0.5596787668764591,
        0.0,
        0.0,
        0.0,
        0.0,
        0.5596787668764591,
        0.0,
        0.0,
        146.45000290870667,
        0.0,
        1.0
      ],
      "name": "Object_96"
    },
    {
      "mesh": 3,
      "name": "Object_97",
      "skin": 0
    },
    {
      "matrix": [
        0.29099402017891407,
        -6.461365741605239e-17,
        -6.461365741605239e-17,
        0.0,
        6.461365459169994e-17,
        -1.2719751618136345e-08,
        0.29099402017891407,
        0.0,
        -6.461366024040483e-17,
        -0.29099402017891407,
        -1.2719751618136345e-08,
        0.0,
        25.529897212982178,
        150.4369695186615,
        46.66913151741028,
        1.0
      ],
      "name": "Object_98"
    },
    {
      "mesh": 4,
      "name": "Object_99",
      "skin": 0
    },
    {
      "matrix": [
        0.5708976183086634,
        0.0,
        0.0,
        0.0,
        0.0,
        0.5708976183086634,
        0.0,
        0.0,
        0.0,
        0.0,
        0.5708976183086634,
        0.0,
        0.0,
        145.70052218437195,
        0.0,
        1.0
      ],
      "name": "Object_100"
    },
    {
      "mesh": 5,
      "name": "Object_101",
      "skin": 0
    },
    {
      "matrix": [
        0.5596787668764591,
        0.0,
        0.0,
        0.0,
        0.0,
        0.5596787668764591,
        0.0,
        0.0,
        0.0,
        0.0,
        0.5596787668764591,
        0.0,
        0.0,
        146.45000290870667,
        0.0,
        1.0
      ],
      "name": "Object_102"
    },
    {
      "mesh": 6,
      "name": "Object_103",
      "skin": 0
    },
    {
      "matrix": [
        0.03183203225489706,
        0.0,
        -0.010740332800196484,
        0.0,
        0.0,
        0.03359513357281685,
        0.0,
        0.0,
        0.010740332800196484,
        0.0,
        0.03183203225489706,
        0.0,
        12.505611777305603,
        175.14862608909607,
        68.7368631362915,
        1.0
      ],
      "name": "Object_104"
    },
    {
      "mesh": 7,
      "name": "Object_105",
      "skin": 0
    },
    {
      "matrix": [
        0.2768047386780381,
        0.0,
        0.0,
        0.0,
        0.0,
        0.2768047386780381,
        0.0,
        0.0,
        0.0,
        0.0,
        0.2768047386780381,
        0.0,
        25.529897212982178,
        150.4369695186615,
        46.66913151741028,
        1.0
      ],
      "name": "Object_106"
    },
    {
      "mesh": 8,
      "name": "Object_107",
      "skin": 0
    },
    {
      "matrix": [
        0.038791054976172745,
        0.0,
        0.0,
        0.0,
        0.0,
        0.038791054976172745,
        0.0,
        0.0,
        0.0,
        0.0,
        0.038791054976172745,
        0.0,
        60.00000238418579,
        104.2162139415741,
        0.0,
        1.0
      ],
      "name": "Object_108"
    },
    {
      "mesh": 9,
      "name": "Object_109",
      "skin": 0
    },
    {
      "matrix": [
        0.066217384301126,
        -1.47032142287822e-17,
        -1.47032142287822e-17,
        0.0,
        3.400304935974684e-17,
        -6.693791401409913e-09,
        0.15313611365854737,
        0.0,
        -2.1259389815861513e-17,
        -0.09574376745149492,
        -4.185092542797696e-09,
        0.0,
        164.11789655685425,
        97.37344574928284,
        38.36606442928314,
        1.0
      ],
      "name": "Object_110"
    },
    {
      "mesh": 10,
      "name": "Object_111",
      "skin": 0
    },
    {
      "matrix": [
        0.06042942404747009,
        0.0,
        0.0,
        0.0,
        0.0,
        0.06042942404747009,
        0.0,
        0.0,
        0.0,
        0.0,
        0.06042942404747009,
        0.0,
        0.0,
        0.4547033905982971,
        0.0,
        1.0
      ],
      "name": "Object_112"
    },
    {
      "mesh": 11,
      "name": "Object_113",
      "skin": 0
    },
    {
      "matrix": [
        0.11855739867314696,
        0.0,
        0.0,
        0.0,
        0.0,
        0.11855739867314696,
        0.0,
        0.0,
        0.0,
        0.0,
        0.11855739867314696,
        0.0,
        33.148300647735596,
        15.375212252140045,
        0.11623501777648926,
        1.0
      ],
      "name": "Object_114"
    },
    {
      "mesh": 12,
      "name": "Object_115",
      "skin": 0
    },
    {
      "matrix": [
        0.29099402017891407,
        -1.3205872304960083e-16,
        -7.728353115973883e-17,
        0.0,
        7.728352538726918e-17,
        -1.2719751618136345e-08,
        0.29099402017891407,
        0.0,
        -1.3205872642777097e-16,
        -0.29099402017891407,
        -1.2719751618136345e-08,
        0.0,
        25.529897212982178,
        150.4369695186615,
        46.66913151741028,
        1.0
      ],
      "name": "Object_116"
    },
    {
      "mesh": 13,
      "name": "Object_117",
      "skin": 0
    }
  ],
  "samplers": [
    {
      "magFilter": 9729,
      "minFilter": 9987,
      "wrapS": 10497,
      "wrapT": 10497
    }
  ],
  "scene": 0,
  "scenes": [
    {
      "name": "Sketchfab_Scene",
      "nodes": [
        0
      ]
    }
  ],
  "skins": [
    {
      "inverseBindMatrices": 69,
      "joints": [
        5,
        6,
        7,
        8,
        9,
        10,
        11,
        12,
        13,
        14,
        15,
        16,
        17,
        18,
        19,
        20,
        21,
        22,
        23,
        24,
        25,
        26,
        27,
        28,
        29,
        30,
        31,
        32,
        33,
        34,
        35,
        36,
        37,
        38,
        39,
        40,
        41,
        42,
        43,
        44,
        45,
        46,
        47,
        48,
        49,
        50,
        51,
        52,
        53,
        54,
        55,
        56,
        57,
        58,
        59,
        60,
        61,
        62,
        63,
        64,
        65,
        66,
        67,
        68,
        69,
        70,
        71,
        72,
        73,
        74,
        75,
        76,
        77,
        78,
        79,
        80,
        81,
        82,
        83,
        84,
        85,
        86,
        87,
        88,
        89
      ],
      "skeleton": 5
    }
  ],
  "textures": [
    {
      "sampler": 0,
      "source": 0
    },
    {
      "sampler": 0,
      "source": 1
    },
    {
      "sampler": 0,
      "source": 2
    },
    {
      "sampler": 0,
      "source": 3
    },
    {
      "sampler": 0,
      "source": 4
    },
    {
      "sampler": 0,
      "source": 5
    }
  ]
}
