{
  "accessors": [
    {
      "bufferView": 2,
      "componentType": 5126,
      "count": 195,
      "max": [
        0.6432002186775208,
        1.683741569519043,
        -0.4238487184047699
      ],
      "min": [
        -2.0478482246398926,
        -2.755966901779175,
        -6.814474105834961
      ],
      "type": "VEC3"
    },
    {
      "bufferView": 2,
      "byteOffset": 2340,
      "componentType": 5126,
      "count": 195,
      "max": [
        0.9992608428001404,
        0.9730774164199829,
        0.9888353943824768
      ],
      "min": [
        -0.9996602535247803,
        -0.9742085933685303,
        -0.9880585074424744
      ],
      "type": "VEC3"
    },
    {
      "bufferView": 1,
      "componentType": 5126,
      "count": 195,
      "max": [
        1.0,
        1.0
      ],
      "min": [
        0.0,
        0.0
      ],
      "type": "VEC2"
    },
    {
      "bufferView": 0,
      "componentType": 5125,
      "count": 1008,
      "type": "SCALAR"
    },
    {
      "bufferView": 2,
      "byteOffset": 4680,
      "componentType": 5126,
      "count": 247,
      "max": [
        0.26182666420936584,
        1.807874083518982,
        0.01550203561782837
      ],
      "min": [
        -2.5140879154205322,
        -2.619187355041504,
        -3.0898587703704834
      ],
      "type": "VEC3"
    },
    {
      "bufferView": 2,
      "byteOffset": 7644,
      "componentType": 5126,
      "count": 247,
      "max": [
        0.9768317937850952,
        0.9992037415504456,
        0.9963092803955078
      ],
      "min": [
        -0.9793856143951416,
        -0.9999676942825317,
        -0.9921609163284302
      ],
      "type": "VEC3"
    },
    {
      "bufferView": 1,
      "byteOffset": 1560,
      "componentType": 5126,
      "count": 247,
      "max": [
        1.0,
        1.0
      ],
      "min": [
        0.0,
        0.0
      ],
      "type": "VEC2"
    },
    {
      "bufferView": 0,
      "byteOffset": 4032,
      "componentType": 5125,
      "count": 1296,
      "type": "SCALAR"
    },
    {
      "bufferView": 2,
      "byteOffset": 10608,
      "componentType": 5126,
      "count": 42,
      "max": [
        -1.2981833219528198,
        1.138136863708496,
        1.9209070205688477
      ],
      "min": [
        -4.5577826499938965,
        -1.0911606550216675,
        -1.3340425491333008
      ],
      "type": "VEC3"
    },
    {
      "bufferView": 2,
      "byteOffset": 11112,
      "componentType": 5126,
      "count": 42,
      "max": [
        0.791293203830719,
        0.9390366673469543,
        0.9946118593215942
      ],
      "min": [
        -0.8217083811759949,
        -0.9838840961456299,
        -0.6403743624687195
      ],
      "type": "VEC3"
    },
    {
      "bufferView": 1,
      "byteOffset": 3536,
      "componentType": 5126,
      "count": 42,
      "max": [
        0.19964846968650818,
        0.6895397901535034
      ],
      "min": [
        0.1889486461877823,
        0.5633013844490051
      ],
      "type": "VEC2"
    },
    {
      "bufferView": 0,
      "byteOffset": 9216,
      "componentType": 5125,
      "count": 84,
      "type": "SCALAR"
    },
    {
      "bufferView": 2,
      "byteOffset": 11616,
      "componentType": 5126,
      "count": 210,
      "max": [
        2.073002576828003,
        1.5762405395507813,
        1.108483910560608
      ],
      "min": [
        -2.106907606124878,
        -0.4649912118911743,
        -2.5745363235473633
      ],
      "type": "VEC3"
    },
    {
      "bufferView": 2,
      "byteOffset": 14136,
      "componentType": 5126,
      "count": 210,
      "max": [
        0.9603174924850464,
        0.9998425245285034,
        0.9305052161216736
      ],
      "min": [
        -0.9948291182518005,
        -0.9998424649238586,
        -0.9975230693817139
      ],
      "type": "VEC3"
    },
    {
      "bufferView": 1,
      "byteOffset": 3872,
      "componentType": 5126,
      "count": 210,
      "max": [
        1.0,
        0.9812190532684326
      ],
      "min": [
        0.007378212176263332,
        0.0
      ],
      "type": "VEC2"
    },
    {
      "bufferView": 0,
      "byteOffset": 9552,
      "componentType": 5125,
      "count": 375,
      "type": "SCALAR"
    },
    {
      "bufferView": 2,
      "byteOffset": 16656,
      "componentType": 5126,
      "count": 606,
      "max": [
        1.1489014625549316,
        0.4702501893043518,
        -2.969104290008545
      ],
      "min": [
        -1.150573968887329,
        -1.8270468711853027,
        -5.315896511077881
      ],
      "type": "VEC3"
    },
    {
      "bufferView": 2,
      "byteOffset": 23928,
      "componentType": 5126,
      "count": 606,
      "max": [
        0.999998152256012,
        0.9996274709701538,
        0.9947036504745483
      ],
      "min": [
        -0.9991095662117004,
        -0.9997193813323975,
        -0.9947037100791931
      ],
      "type": "VEC3"
    },
    {
      "bufferView": 1,
      "byteOffset": 5552,
      "componentType": 5126,
      "count": 606,
      "max": [
        1.000468134880066,
        0.9227743148803711
      ],
      "min": [
        0.5016965866088867,
        0.00012412173964548856
      ],
      "type": "VEC2"
    },
    {
      "bufferView": 0,
      "byteOffset": 11052,
      "componentType": 5125,
      "count": 1248,
      "type": "SCALAR"
    },
    {
      "bufferView": 2,
      "byteOffset": 31200,
      "componentType": 5126,
      "count": 94,
      "max": [
        0.6544975638389587,
        0.6430220603942871,
        -2.26483154296875
      ],
      "min": [
        -0.6498726010322571,
        -0.5602102279663086,
        -5.228088855743408
      ],
      "type": "VEC3"
    },
    {
      "bufferView": 2,
      "byteOffset": 32328,
      "componentType": 5126,
      "count": 94,
      "max": [
        0.9999997615814209,
        0.9955407381057739,
        0.9646481871604919
      ],
      "min": [
        -0.9600140452384949,
        -0.9965954422950745,
        -0.4609336853027344
      ],
      "type": "VEC3"
    },
    {
      "bufferView": 1,
      "byteOffset": 10400,
      "componentType": 5126,
      "count": 94,
      "max": [
        0.9803820848464966,
        1.0
      ],
      "min": [
        0.0,
        0.0
      ],
      "type": "VEC2"
    },
    {
      "bufferView": 0,
      "byteOffset": 16044,
      "componentType": 5125,
      "count": 222,
      "type": "SCALAR"
    },
    {
      "bufferView": 2,
      "byteOffset": 33456,
      "componentType": 5126,
      "count": 14,
      "max": [
        1.9025436639785767,
        1.6178698539733887,
        -0.3471527099609375
      ],
      "min": [
        -1.9631539583206177,
        1.3319511413574219,
        -4.010565757751465
      ],
      "type": "VEC3"
    },
    {
      "bufferView": 2,
      "byteOffset": 33624,
      "componentType": 5126,
      "count": 14,
      "max": [
        0.4522446393966675,
        0.9938015341758728,
        0.045609280467033386
      ],
      "min": [
        -0.4522443413734436,
        -0.9967848062515259,
        -0.21081843972206116
      ],
      "type": "VEC3"
    },
    {
      "bufferView": 1,
      "byteOffset": 11152,
      "componentType": 5126,
      "count": 14,
      "max": [
        0.3110513389110565,
        0.5633013844490051
      ],
      "min": [
        0.1889486461877823,
        0.5633013844490051
      ],
      "type": "VEC2"
    },
    {
      "bufferView": 0,
      "byteOffset": 16932,
      "componentType": 5125,
      "count": 30,
      "type": "SCALAR"
    },
    {
      "bufferView": 2,
      "byteOffset": 33792,
      "componentType": 5126,
      "count": 32,
      "max": [
        2.6849215030670166,
        1.7409348487854004,
        1.9315109252929688
      ],
      "min": [
        -2.7455313205718994,
        0.8080851435661316,
        -0.6529903411865234
      ],
      "type": "VEC3"
    },
    {
      "bufferView": 2,
      "byteOffset": 34176,
      "componentType": 5126,
      "count": 32,
      "max": [
        0.5753948092460632,
        0.9693389534950256,
        0.4774816632270813
      ],
      "min": [
        -0.4877728223800659,
        -0.9713410139083862,
        -0.33347925543785095
      ],
      "type": "VEC3"
    },
    {
      "bufferView": 1,
      "byteOffset": 11264,
      "componentType": 5126,
      "count": 32,
      "max": [
        0.3126632571220398,
        0.5633014440536499
      ],
      "min": [
        0.1873367726802826,
        0.5633013248443604
      ],
      "type": "VEC2"
    },
    {
      "bufferView": 0,
      "byteOffset": 17052,
      "componentType": 5125,
      "count": 69,
      "type": "SCALAR"
    },
    {
      "bufferView": 2,
      "byteOffset": 34560,
      "componentType": 5126,
      "count": 24,
      "max": [
        3.9303600788116455,
        0.8070874214172363,
        -0.6332216262817383
      ],
      "min": [
        2.788182497024536,
        -0.8478540182113647,
        -3.919278144836426
      ],
      "type": "VEC3"
    },
    {
      "bufferView": 2,
      "byteOffset": 34848,
      "componentType": 5126,
      "count": 24,
      "max": [
        0.9280839562416077,
        0.9388048648834229,
        0.6026796102523804
      ],
      "min": [
        -0.9052174091339111,
        -0.8821851015090942,
        -0.2612505555152893
      ],
      "type": "VEC3"
    },
    {
      "bufferView": 1,
      "byteOffset": 11520,
      "componentType": 5126,
      "count": 24,
      "max": [
        0.3110513389110565,
        0.6866985559463501
      ],
      "min": [
        0.0,
        0.0
      ],
      "type": "VEC2"
    },
    {
      "bufferView": 0,
      "byteOffset": 17328,
      "componentType": 5125,
      "count": 30,
      "type": "SCALAR"
    },
    {
      "bufferView": 2,
      "byteOffset": 35136,
      "componentType": 5126,
      "count": 50,
      "max": [
        4.231439113616943,
        1.2176973819732666,
        1.9315109252929688
      ],
      "min": [
        1.2280950546264648,
        -1.0911606550216675,
        -1.0805511474609375
      ],
      "type": "VEC3"
    },
    {
      "bufferView": 2,
      "byteOffset": 35736,
      "componentType": 5126,
      "count": 50,
      "max": [
        0.9299911856651306,
        0.9212734699249268,
        0.9924303293228149
      ],
      "min": [
        -0.7907233834266663,
        -0.9796112179756165,
        -0.6408679485321045
      ],
      "type": "VEC3"
    },
    {
      "bufferView": 1,
      "byteOffset": 11712,
      "componentType": 5126,
      "count": 50,
      "max": [
        0.3110513389110565,
        0.68896484375
      ],
      "min": [
        0.3004002869129181,
        0.5633013844490051
      ],
      "type": "VEC2"
    },
    {
      "bufferView": 0,
      "byteOffset": 17448,
      "componentType": 5125,
      "count": 93,
      "type": "SCALAR"
    },
    {
      "bufferView": 2,
      "byteOffset": 36336,
      "componentType": 5126,
      "count": 17,
      "max": [
        1.798438549041748,
        -1.2554985284805298,
        -1.4549455642700195
      ],
      "min": [
        -1.8590492010116577,
        -1.66104257106781,
        -3.9369864463806152
      ],
      "type": "VEC3"
    },
    {
      "bufferView": 2,
      "byteOffset": 36540,
      "componentType": 5126,
      "count": 17,
      "max": [
        0.6609891057014465,
        0.9965682029724121,
        0.02983884885907173
      ],
      "min": [
        -0.6609889268875122,
        -0.9983997941017151,
        -0.4439070224761963
      ],
      "type": "VEC3"
    },
    {
      "bufferView": 1,
      "byteOffset": 12112,
      "componentType": 5126,
      "count": 17,
      "max": [
        0.3005923330783844,
        0.6866985559463501
      ],
      "min": [
        0.1994076371192932,
        0.6866985559463501
      ],
      "type": "VEC2"
    },
    {
      "bufferView": 0,
      "byteOffset": 17820,
      "componentType": 5125,
      "count": 30,
      "type": "SCALAR"
    },
    {
      "bufferView": 2,
      "byteOffset": 36744,
      "componentType": 5126,
      "count": 575,
      "max": [
        2.741103172302246,
        0.3091675341129303,
        -3.640019416809082
      ],
      "min": [
        -2.7076449394226074,
        -2.142500877380371,
        -9.191988945007324
      ],
      "type": "VEC3"
    },
    {
      "bufferView": 2,
      "byteOffset": 43644,
      "componentType": 5126,
      "count": 575,
      "max": [
        0.9677983522415161,
        0.99994957447052,
        0.992886483669281
      ],
      "min": [
        -0.9792548418045044,
        -0.9998675584793091,
        -0.9938974976539612
      ],
      "type": "VEC3"
    },
    {
      "bufferView": 1,
      "byteOffset": 12248,
      "componentType": 5126,
      "count": 575,
      "max": [
        0.985035240650177,
        0.944867730140686
      ],
      "min": [
        0.0034632934257388115,
        0.11058241128921509
      ],
      "type": "VEC2"
    },
    {
      "bufferView": 0,
      "byteOffset": 17940,
      "componentType": 5125,
      "count": 1323,
      "type": "SCALAR"
    },
    {
      "bufferView": 2,
      "byteOffset": 50544,
      "componentType": 5126,
      "count": 78,
      "max": [
        -1.3546701669692993,
        -1.4681415557861328,
        -1.2060588598251343
      ],
      "min": [
        -2.345134735107422,
        -2.0498101711273193,
        -2.390470504760742
      ],
      "type": "VEC3"
    },
    {
      "bufferView": 2,
      "byteOffset": 51480,
      "componentType": 5126,
      "count": 78,
      "max": [
        0.964593231678009,
        0.9823659658432007,
        0.9998648762702942
      ],
      "min": [
        -0.9690096974372864,
        -0.9715326428413391,
        -0.9968090653419495
      ],
      "type": "VEC3"
    },
    {
      "bufferView": 1,
      "byteOffset": 16848,
      "componentType": 5126,
      "count": 78,
      "max": [
        1.0,
        1.0
      ],
      "min": [
        0.0,
        0.0
      ],
      "type": "VEC2"
    },
    {
      "bufferView": 0,
      "byteOffset": 23232,
      "componentType": 5125,
      "count": 360,
      "type": "SCALAR"
    },
    {
      "bufferView": 2,
      "byteOffset": 52416,
      "componentType": 5126,
      "count": 78,
      "max": [
        -1.2889971733093262,
        -1.4651581048965454,
        -1.1496992111206055
      ],
      "min": [
        -2.7480506896972656,
        -2.5604491233825684,
        -2.8611812591552734
      ],
      "type": "VEC3"
    },
    {
      "bufferView": 2,
      "byteOffset": 53352,
      "componentType": 5126,
      "count": 78,
      "max": [
        0.9234943985939026,
        0.9805457592010498,
        0.9675514698028564
      ],
      "min": [
        -0.9506444334983826,
        -0.9805662631988525,
        -0.9704477190971375
      ],
      "type": "VEC3"
    },
    {
      "bufferView": 1,
      "byteOffset": 17472,
      "componentType": 5126,
      "count": 78,
      "max": [
        1.0,
        1.0
      ],
      "min": [
        0.0,
        0.0
      ],
      "type": "VEC2"
    },
    {
      "bufferView": 0,
      "byteOffset": 24672,
      "componentType": 5125,
      "count": 360,
      "type": "SCALAR"
    },
    {
      "bufferView": 2,
      "byteOffset": 54288,
      "componentType": 5126,
      "count": 78,
      "max": [
        -1.2665337324142456,
        -1.6592755317687988,
        -1.1239252090454102
      ],
      "min": [
        -2.5319478511810303,
        -2.8449010848999023,
        -2.7988789081573486
      ],
      "type": "VEC3"
    },
    {
      "bufferView": 2,
      "byteOffset": 55224,
      "componentType": 5126,
      "count": 78,
      "max": [
        0.955018162727356,
        0.9741726517677307,
        0.9467664957046509
      ],
      "min": [
        -0.9694843292236328,
        -0.9688261151313782,
        -0.9414036273956299
      ],
      "type": "VEC3"
    },
    {
      "bufferView": 1,
      "byteOffset": 18096,
      "componentType": 5126,
      "count": 78,
      "max": [
        1.0,
        1.0
      ],
      "min": [
        0.0,
        0.0
      ],
      "type": "VEC2"
    },
    {
      "bufferView": 0,
      "byteOffset": 26112,
      "componentType": 5125,
      "count": 360,
      "type": "SCALAR"
    },
    {
      "bufferView": 2,
      "byteOffset": 56160,
      "componentType": 5126,
      "count": 36,
      "max": [
        1.0471959114074707,
        0.8295236825942993,
        1.0
      ],
      "min": [
        -0.8245835900306702,
        -0.831599771976471,
        -0.02474328875541687
      ],
      "type": "VEC3"
    },
    {
      "bufferView": 2,
      "byteOffset": 56592,
      "componentType": 5126,
      "count": 36,
      "max": [
        0.8764296174049377,
        0.7832428812980652,
        1.0
      ],
      "min": [
        -0.958598792552948,
        -0.8792349100112915,
        -0.9902330636978149
      ],
      "type": "VEC3"
    },
    {
      "bufferView": 1,
      "byteOffset": 18720,
      "componentType": 5126,
      "count": 36,
      "max": [
        0.9758443832397461,
        0.9247313737869263
      ],
      "min": [
        0.7724003791809082,
        0.6967462301254272
      ],
      "type": "VEC2"
    },
    {
      "bufferView": 0,
      "byteOffset": 27552,
      "componentType": 5125,
      "count": 60,
      "type": "SCALAR"
    },
    {
      "bufferView": 2,
      "byteOffset": 57024,
      "componentType": 5126,
      "count": 28,
      "max": [
        1.798438549041748,
        -0.7374991178512573,
        1.6680164337158203
      ],
      "min": [
        -1.8590492010116577,
        -1.7298697233200073,
        -1.808074951171875
      ],
      "type": "VEC3"
    },
    {
      "bufferView": 2,
      "byteOffset": 57360,
      "componentType": 5126,
      "count": 28,
      "max": [
        0.5870152711868286,
        0.9865214824676514,
        0.27308037877082825
      ],
      "min": [
        -0.5870150327682495,
        -0.9931787848472595,
        -0.6835507750511169
      ],
      "type": "VEC3"
    },
    {
      "bufferView": 1,
      "byteOffset": 19008,
      "componentType": 5126,
      "count": 28,
      "max": [
        0.3005923330783844,
        0.6866985559463501
      ],
      "min": [
        0.1994076371192932,
        0.6866985559463501
      ],
      "type": "VEC2"
    },
    {
      "bufferView": 0,
      "byteOffset": 27792,
      "componentType": 5125,
      "count": 72,
      "type": "SCALAR"
    },
    {
      "bufferView": 2,
      "byteOffset": 57696,
      "componentType": 5126,
      "count": 24,
      "max": [
        -3.004735231399536,
        0.783207893371582,
        -0.8971080780029297
      ],
      "min": [
        -4.23209810256958,
        -0.8332735300064087,
        -3.9194538593292236
      ],
      "type": "VEC3"
    },
    {
      "bufferView": 2,
      "byteOffset": 57984,
      "componentType": 5126,
      "count": 24,
      "max": [
        0.9178556799888611,
        0.9405041933059692,
        0.7378416657447815
      ],
      "min": [
        -0.9299491047859192,
        -0.9326828122138977,
        -0.30861178040504456
      ],
      "type": "VEC3"
    },
    {
      "bufferView": 1,
      "byteOffset": 19232,
      "componentType": 5126,
      "count": 24,
      "max": [
        0.1994076371192932,
        0.6866985559463501
      ],
      "min": [
        0.0,
        0.0
      ],
      "type": "VEC2"
    },
    {
      "bufferView": 0,
      "byteOffset": 28080,
      "componentType": 5125,
      "count": 30,
      "type": "SCALAR"
    },
    {
      "bufferView": 3,
      "componentType": 5126,
      "count": 14,
      "max": [
        1.0,
        0.0,
        0.0,
        0.0,
        0.0,
        1.0,
        0.0,
        0.0,
        0.0,
        0.0,
        1.0,
        0.0,
        0.0,
        0.0,
        0.0,
        1.0
      ],
      "min": [
        1.0,
        0.0,
        0.0,
        0.0,
        0.0,
        1.0,
        0.0,
        0.0,
        0.0,
        0.0,
        1.0,
        0.0,
        0.0,
        0.0,
        0.0,
        1.0
      ],
      "type": "MAT4"
    }
  ],
  "asset": {
    "extras": {
      "author": "sweatmor (https://sketchfab.com/sweatmor)",
      "license": "CC-BY-4.0 (http://creativecommons.org/licenses/by/4.0/)",
      "source": "https://sketchfab.com/3d-models/neon-coloured-robot-eb4b9463eb554d8c85d81818a0bda013",
      "title": "Neon coloured robot"
    },
    "generator": "Sketchfab-14.13.0",
    "version": "2.0"
  },
  "bufferViews": [
    {
      "buffer": 0,
      "byteLength": 28200,
      "name": "floatBufferViews",
      "target": 34963
    },
    {
      "buffer": 0,
      "byteLength": 19424,
      "byteOffset": 28200,
      "byteStride": 8,
      "name": "floatBufferViews",
      "target": 34962
    },
    {
      "buffer": 0,
      "byteLength": 58272,
      "byteOffset": 47624,
      "byteStride": 12,
      "name": "floatBufferViews",
      "target": 34962
    },
    {
      "buffer": 0,
      "byteLength": 896,
      "byteOffset": 105896,
      "name": "floatBufferViews"
    }
  ],
  "buffers": [
    {
      "byteLength": 106792,
      "uri": "scene.bin"
    }
  ],
  "images": [
    {
      "uri": "textures/Material_baseColor.png"
    },
    {
      "uri": "textures/Material_metallicRoughness.png"
    },
    {
      "uri": "textures/Material_emissive.png"
    }
  ],
  "materials": [
    {
      "doubleSided": true,
      "name": "Material.001",
      "pbrMetallicRoughness": {
        "baseColorFactor": [
          0.8,
          0.736598,
          0.0,
          1.0
        ],
        "metallicFactor": 0.0,
        "roughnessFactor": 0.17866416354792702
      }
    },
    {
      "doubleSided": true,
      "emissiveFactor": [
        1.0,
        1.0,
        1.0
      ],
      "emissiveTexture": {
        "index": 2
      },
      "name": "Material",
      "pbrMetallicRoughness": {
        "baseColorTexture": {
          "index": 0
        },
        "metallicRoughnessTexture": {
          "index": 1
        }
      }
    },
    {
      "doubleSided": true,
      "name": "Material.002",
      "pbrMetallicRoughness": {
        "baseColorFactor": [
          0.7999999999999999,
          0.0,
          0.009968119999999952,
          1.0
        ],
        "metallicFactor": 0.0,
        "roughnessFactor": 0.30056929697309553
      }
    }
  ],
  "meshes": [
    {
      "name": "Head Cable_Material.001_0",
      "primitives": [
        {
          "attributes": {
            "NORMAL": 1,
            "POSITION": 0,
            "TEXCOORD_0": 2
          },
          "indices": 3,
          "material": 0,
          "mode": 4
        }
      ]
    },
    {
      "name": "Power Pipe_Material.001_0",
      "primitives": [
        {
          "attributes": {
            "NORMAL": 5,
            "POSITION": 4,
            "TEXCOORD_0": 6
          },
          "indices": 7,
          "material": 0,
          "mode": 4
        }
      ]
    },
    {
      "name": "Front left leg_Material_0",
      "primitives": [
        {
          "attributes": {
            "NORMAL": 9,
            "POSITION": 8,
            "TEXCOORD_0": 10
          },
          "indices": 11,
          "material": 1,
          "mode": 4
        }
      ]
    },
    {
      "name": "Head_Material_0",
      "primitives": [
        {
          "attributes": {
            "NORMAL": 13,
            "POSITION": 12,
            "TEXCOORD_0": 14
          },
          "indices": 15,
          "material": 1,
          "mode": 4
        }
      ]
    },
    {
      "name": "Eye_Material_0",
      "primitives": [
        {
          "attributes": {
            "NORMAL": 17,
            "POSITION": 16,
            "TEXCOORD_0": 18
          },
          "indices": 19,
          "material": 1,
          "mode": 4
        }
      ]
    },
    {
      "name": "Kneck_Material_0",
      "primitives": [
        {
          "attributes": {
            "NORMAL": 21,
            "POSITION": 20,
            "TEXCOORD_0": 22
          },
          "indices": 23,
          "material": 1,
          "mode": 4
        }
      ]
    },
    {
      "name": "Front right leg.001_Material_0",
      "primitives": [
        {
          "attributes": {
            "NORMAL": 25,
            "POSITION": 24,
            "TEXCOORD_0": 26
          },
          "indices": 27,
          "material": 1,
          "mode": 4
        }
      ]
    },
    {
      "name": "Front right leg_Material_0",
      "primitives": [
        {
          "attributes": {
            "NORMAL": 29,
            "POSITION": 28,
            "TEXCOORD_0": 30
          },
          "indices": 31,
          "material": 1,
          "mode": 4
        }
      ]
    },
    {
      "name": "Back left leg.001_Material_0",
      "primitives": [
        {
          "attributes": {
            "NORMAL": 33,
            "POSITION": 32,
            "TEXCOORD_0": 34
          },
          "indices": 35,
          "material": 1,
          "mode": 4
        }
      ]
    },
    {
      "name": "Back left leg_Material_0",
      "primitives": [
        {
          "attributes": {
            "NORMAL": 37,
            "POSITION": 36,
            "TEXCOORD_0": 38
          },
          "indices": 39,
          "material": 1,
          "mode": 4
        }
      ]
    },
    {
      "name": "BackLeftLeg.001_Material_0",
      "primitives": [
        {
          "attributes": {
            "NORMAL": 41,
            "POSITION": 40,
            "TEXCOORD_0": 42
          },
          "indices": 43,
          "material": 1,
          "mode": 4
        }
      ]
    },
    {
      "name": "Body_Material_0",
      "primitives": [
        {
          "attributes": {
            "NORMAL": 45,
            "POSITION": 44,
            "TEXCOORD_0": 46
          },
          "indices": 47,
          "material": 1,
          "mode": 4
        }
      ]
    },
    {
      "name": "Middle S pipe_Material.002_0",
      "primitives": [
        {
          "attributes": {
            "NORMAL": 49,
            "POSITION": 48,
            "TEXCOORD_0": 50
          },
          "indices": 51,
          "material": 2,
          "mode": 4
        }
      ]
    },
    {
      "name": "Front S Pipe_Material.002_0",
      "primitives": [
        {
          "attributes": {
            "NORMAL": 53,
            "POSITION": 52,
            "TEXCOORD_0": 54
          },
          "indices": 55,
          "material": 2,
          "mode": 4
        }
      ]
    },
    {
      "name": "Back S Pipe_Material.002_0",
      "primitives": [
        {
          "attributes": {
            "NORMAL": 57,
            "POSITION": 56,
            "TEXCOORD_0": 58
          },
          "indices": 59,
          "material": 2,
          "mode": 4
        }
      ]
    },
    {
      "name": "Hip_Material_0",
      "primitives": [
        {
          "attributes": {
            "NORMAL": 61,
            "POSITION": 60,
            "TEXCOORD_0": 62
          },
          "indices": 63,
          "material": 1,
          "mode": 4
        }
      ]
    },
    {
      "name": "BackLeftLeg_Material_0",
      "primitives": [
        {
          "attributes": {
            "NORMAL": 65,
            "POSITION": 64,
            "TEXCOORD_0": 66
          },
          "indices": 67,
          "material": 1,
          "mode": 4
        }
      ]
    },
    {
      "name": "Front left leg.001_Material_0",
      "primitives": [
        {
          "attributes": {
            "NORMAL": 69,
            "POSITION": 68,
            "TEXCOORD_0": 70
          },
          "indices": 71,
          "material": 1,
          "mode": 4
        }
      ]
    }
  ],
  "nodes": [
    {
      "children": [
        1
      ],
      "matrix": [
        0.6981112360954285,
        0.0,
        0.0,
        0.0,
        0.0,
        1.5501183361253467e-16,
        -0.6981112360954285,
        0.0,
        0.0,
        0.6981112360954285,
        1.5501183361253467e-16,
        0.0,
        0.0,
        0.0,
        0.0,
        1.0
      ],
      "name": "Sketchfab_model"
    },
    {
      "children": [
        2
      ],
      "matrix": [
        0.009999999776482582,
        0.0,
        0.0,
        0.0,
        0.0,
        0.0,
        0.009999999776482582,
        0.0,
        0.0,
        -0.009999999776482582,
        0.0,
        0.0,
        0.0,
        0.0,
        0.0,
        1.0
      ],
      "name": "d6d6ed02e5b341c18fddb6d43989b72c.fbx"
    },
    {
      "children": [
        3,
        5,
        7,
        9,
        53
      ],
      "name": "RootNode"
    },
    {
      "children": [
        4
      ],
      "matrix": [
        8.997909545898438,
        0.0,
        0.0,
        0.0,
        0.0,
        -1.4659455363240187e-06,
        -8.997909545898318,
        0.0,
        0.0,
        8.997909545898318,
        -1.4659455363240187e-06,
        0.0,
        55.157005310058594,
        79.81588745117188,
        -19.833600997924805,
        1.0
      ],
      "name": "Head Cable"
    },
    {
      "mesh": 0,
      "name": "Head Cable_Material.001_0"
    },
    {
      "children": [
        6
      ],
      "matrix": [
        8.997909545898438,
        0.0,
        0.0,
        0.0,
        0.0,
        -1.4659455363240187e-06,
        -8.997909545898318,
        0.0,
        0.0,
        8.997909545898318,
        -1.4659455363240187e-06,
        0.0,
        34.4577751159668,
        42.04102325439453,
        -15.181243896484375,
        1.0
      ],
      "name": "Power Pipe"
    },
    {
      "mesh": 1,
      "name": "Power Pipe_Material.001_0"
    },
    {
      "children": [
        8
      ],
      "matrix": [
        5.366321792224427,
        -3.407212272934944e-07,
        7.22253187036702,
        0.0,
        17.72070480383317,
        3.1733502292653684e-06,
        -13.166436101520807,
        0.0,
        -8.349790388609404e-07,
        8.997909545898338,
        1.0448614320496164e-06,
        0.0,
        33.26910400390625,
        -24.543062210083008,
        3.376483917236328,
        1.0
      ],
      "name": "Front left leg"
    },
    {
      "mesh": 2,
      "name": "Front left leg_Material_0"
    },
    {
      "children": [
        10
      ],
      "matrix": [
        8.997909545898438,
        0.0,
        0.0,
        0.0,
        0.0,
        -1.4659455363240187e-06,
        -8.997909545898318,
        0.0,
        0.0,
        8.997909545898318,
        -1.4659455363240187e-06,
        0.0,
        34.19743347167969,
        -0.2095356583595276,
        2.5518298149108887,
        1.0
      ],
      "name": "Armature"
    },
    {
      "children": [
        11
      ],
      "name": "Object_10"
    },
    {
      "children": [
        12
      ],
      "name": "_rootJoint"
    },
    {
      "children": [
        13,
        22,
        29,
        36,
        41,
        43,
        45,
        47,
        49,
        51
      ],
      "name": "Bone_00",
      "rotation": [
        0.5585248470306396,
        -0.004234405234456062,
        0.0064565869979560375,
        0.829451858997345
      ],
      "scale": [
        0.9999999403953552,
        1.0,
        1.0
      ],
      "translation": [
        -0.17559731006622314,
        0.0,
        0.0
      ]
    },
    {
      "children": [
        14,
        20
      ],
      "name": "Bone.001_01",
      "rotation": [
        -0.11360488831996918,
        -0.0008804998360574245,
        -0.02301352098584175,
        0.993259072303772
      ],
      "scale": [
        0.9999999403953552,
        0.9999999403953552,
        0.9999999403953552
      ],
      "translation": [
        -6.51925802230835e-09,
        4.882531642913818,
        -9.601353667676449e-08
      ]
    },
    {
      "children": [
        15,
        16
      ],
      "name": "Bone.002_02",
      "rotation": [
        0.2898733615875244,
        0.004386605694890022,
        0.01478663645684719,
        0.9569407105445862
      ],
      "scale": [
        0.9999999403953552,
        1.0,
        1.0
      ],
      "translation": [
        -3.3527612686157227e-08,
        2.4443373680114746,
        6.180489435791969e-07
      ]
    },
    {
      "name": "Bone.002_end_09",
      "rotation": [
        1.734723475976807e-18,
        1.0339757656912846e-25,
        9.04728794979874e-25,
        1.0
      ],
      "translation": [
        0.0,
        2.3420286178588867,
        0.0
      ]
    },
    {
      "children": [
        17,
        18
      ],
      "matrix": [
        1.0,
        -3.8136043675954436e-16,
        -6.470032071523927e-17,
        0.0,
        -1.3531004859133726e-16,
        0.061318843595792795,
        -2.452764187446146,
        0.0,
        3.828583600142207e-16,
        0.9996877682388635,
        0.024992087791811803,
        0.0,
        0.03453946113586426,
        2.352630138397217,
        0.8132507801055908,
        1.0
      ],
      "name": "Head"
    },
    {
      "mesh": 3,
      "name": "Head_Material_0"
    },
    {
      "children": [
        19
      ],
      "matrix": [
        0.875200092792511,
        4.685629605326986e-09,
        -3.344925793496431e-10,
        0.0,
        3.344915303425051e-10,
        1.7040767998961885e-07,
        0.8751997351646258,
        0.0,
        8.050864388683713e-10,
        -0.15037716925143912,
        2.9279515870424506e-08,
        0.0,
        -2.384185791015625e-07,
        1.1129283905029297,
        -0.29395467042922974,
        1.0
      ],
      "name": "Eye"
    },
    {
      "mesh": 4,
      "name": "Eye_Material_0"
    },
    {
      "children": [
        21
      ],
      "matrix": [
        0.9999999403953552,
        8.002665231876535e-10,
        3.1468152875135927e-09,
        0.0,
        5.252967240391123e-09,
        1.388961184108606,
        -2.0225229266532176,
        0.0,
        -2.4411196667139856e-09,
        0.8243316171868907,
        0.5661071150380991,
        0.0,
        0.034538984298706055,
        3.9728760719299316,
        1.9646412134170532,
        1.0
      ],
      "name": "Kneck"
    },
    {
      "mesh": 5,
      "name": "Kneck_Material_0"
    },
    {
      "children": [
        23,
        27
      ],
      "name": "Bone.003_03",
      "rotation": [
        -0.00955613050609827,
        -0.3451095521450043,
        0.926037609577179,
        -0.15252020955085754
      ],
      "scale": [
        1.0,
        1.000000238418579,
        1.0000003576278687
      ],
      "translation": [
        2.3956565856933594,
        -0.10741335898637772,
        -1.5790773630142212
      ]
    },
    {
      "children": [
        24,
        25
      ],
      "name": "Bone.004_04",
      "rotation": [
        0.19104203581809998,
        -0.0014431289164349437,
        -0.19453094899654388,
        0.9621115326881409
      ],
      "scale": [
        0.9999999403953552,
        0.9999998807907104,
        0.9999999403953552
      ],
      "translation": [
        -3.045424818992615e-07,
        2.549455165863037,
        2.980232238769531e-07
      ]
    },
    {
      "name": "Bone.004_end_010",
      "rotation": [
        6.938893903907228e-18,
        3.469446951953614e-18,
        5.204170427930421e-18,
        1.0
      ],
      "translation": [
        0.0,
        3.505035400390625,
        0.0
      ]
    },
    {
      "children": [
        26
      ],
      "matrix": [
        -0.5550606941797253,
        0.020341870712896174,
        0.8315609392305872,
        0.0,
        -2.0342366903509057,
        -0.23080456513006462,
        -1.3521917394155285,
        0.0,
        0.06701443004890335,
        -0.9953575912827155,
        0.06908033889990907,
        0.0,
        3.209768295288086,
        0.1232459545135498,
        2.1928980350494385,
        1.0
      ],
      "name": "Front right leg.001"
    },
    {
      "mesh": 6,
      "name": "Front right leg.001_Material_0"
    },
    {
      "children": [
        28
      ],
      "matrix": [
        -0.5695625130431025,
        -0.07982672836964506,
        0.8180622711908839,
        0.0,
        -1.8622759644103175,
        1.062406537826139,
        -1.192909359742883,
        0.0,
        -0.31541838915815806,
        -0.897846638915808,
        -0.3072170163591566,
        0.0,
        2.843808650970459,
        0.6462302207946777,
        1.848536729812622,
        1.0
      ],
      "name": "Front right leg"
    },
    {
      "mesh": 7,
      "name": "Front right leg_Material_0"
    },
    {
      "children": [
        30,
        34
      ],
      "name": "Bone.005_05",
      "rotation": [
        0.9939155578613281,
        0.09817347675561905,
        0.012063673697412014,
        0.04845935106277466
      ],
      "scale": [
        1.0000022649765015,
        1.0,
        1.0000004768371582
      ],
      "translation": [
        1.5821305513381958,
        -1.584546446800232,
        1.3319453001022339
      ]
    },
    {
      "children": [
        31,
        32
      ],
      "name": "Bone.006_06",
      "rotation": [
        0.24018140137195587,
        -0.016793815419077873,
        0.13970911502838135,
        0.9604750275611877
      ],
      "scale": [
        1.0,
        0.9999999403953552,
        1.0
      ],
      "translation": [
        -8.940696716308594e-08,
        2.9146230220794678,
        1.4156103134155273e-07
      ]
    },
    {
      "name": "Bone.006_end_011",
      "rotation": [
        -6.863613850720002e-20,
        -5.420955170949419e-37,
        7.898106604294133e-18,
        1.0
      ],
      "translation": [
        0.0,
        2.947422504425049,
        0.0
      ]
    },
    {
      "children": [
        33
      ],
      "matrix": [
        0.5679990173744126,
        -0.04623324866434142,
        -0.8217292058361036,
        0.0,
        2.0103531962397905,
        -0.1526712155545934,
        1.3981943420683194,
        0.0,
        -0.077479402643092,
        -0.9969906018594981,
        0.0025384151237834098,
        0.0,
        -2.094538927078247,
        -0.5912137031555176,
        3.131984233856201,
        1.0
      ],
      "name": "Back left leg.001"
    },
    {
      "mesh": 8,
      "name": "Back left leg.001_Material_0"
    },
    {
      "children": [
        35
      ],
      "matrix": [
        0.5296481235665997,
        0.49174215292906087,
        -0.6911310748383661,
        0.0,
        2.0216739517348623,
        -0.257441397378676,
        1.3661388734699869,
        0.0,
        0.20128698249878108,
        -0.8643954992676873,
        -0.4607641629884689,
        0.0,
        -1.7390038967132568,
        0.40975332260131836,
        2.2907326221466064,
        1.0
      ],
      "name": "Back left leg"
    },
    {
      "mesh": 9,
      "name": "Back left leg_Material_0"
    },
    {
      "children": [
        37
      ],
      "name": "Bone.007_07",
      "rotation": [
        -0.6911478042602539,
        0.01079031266272068,
        0.7058461308479309,
        0.1548532247543335
      ],
      "scale": [
        0.9999997615814209,
        0.9999998807907104,
        0.9999998807907104
      ],
      "translation": [
        -2.473599910736084,
        -1.8048546314239502,
        1.3396546840667725
      ]
    },
    {
      "children": [
        38,
        39
      ],
      "name": "Bone.008_08",
      "rotation": [
        -0.1768062263727188,
        -0.005735121201723814,
        -0.13945530354976654,
        0.9742991924285889
      ],
      "scale": [
        0.9999999403953552,
        0.9999997615814209,
        0.9999998807907104
      ],
      "translation": [
        -1.627464030207193e-08,
        3.13234543800354,
        3.7997961044311523e-07
      ]
    },
    {
      "name": "Bone.008_end_012",
      "rotation": [
        2.0816681711721685e-17,
        1.4444474582904269e-34,
        6.938893903907228e-18,
        1.0
      ],
      "translation": [
        0.0,
        2.3184444904327393,
        1.3183898417423734e-16
      ]
    },
    {
      "children": [
        40
      ],
      "matrix": [
        -0.7987065172587013,
        0.0031796535314513137,
        -0.6017127769368964,
        0.0,
        1.4560156318999016,
        0.41593641098970335,
        -1.9305002075313356,
        0.0,
        0.09950387685447237,
        -0.9855206510710757,
        -0.13728810874716402,
        0.0,
        2.5294766426086426,
        -0.8066353797912598,
        -3.3463709354400635,
        1.0
      ],
      "name": "BackLeftLeg.001"
    },
    {
      "mesh": 10,
      "name": "BackLeftLeg.001_Material_0"
    },
    {
      "children": [
        42
      ],
      "matrix": [
        0.9998807049997039,
        -0.015440895994553751,
        0.00018785870858990724,
        0.0,
        0.014674114690407797,
        0.9225683098605295,
        -2.273425728674112,
        0.0,
        0.014236798404036575,
        0.9264842504199855,
        0.37606415316395214,
        0.0,
        0.17603254318237305,
        9.174886703491211,
        1.0394153594970703,
        1.0
      ],
      "name": "Body"
    },
    {
      "mesh": 11,
      "name": "Body_Material_0"
    },
    {
      "children": [
        44
      ],
      "matrix": [
        0.9998807049853727,
        -0.01544089692576597,
        0.00018785844665545395,
        0.0,
        0.005980815718612205,
        0.37601661608230424,
        -0.926593554404555,
        0.0,
        0.014236799365384682,
        0.9264842504052054,
        0.3760641531639709,
        0.0,
        0.2625548839569092,
        3.7484848499298096,
        -0.6038216352462769,
        1.0
      ],
      "name": "Middle S pipe"
    },
    {
      "mesh": 12,
      "name": "Middle S pipe_Material.002_0"
    },
    {
      "children": [
        46
      ],
      "matrix": [
        0.9998807049853672,
        -0.015440896925765892,
        0.0001878584757592818,
        0.0,
        0.00967997158867859,
        0.6172587318237659,
        -0.7867005260699864,
        0.0,
        0.012031405167110577,
        0.7866085419694482,
        0.6173346001738755,
        0.0,
        0.29742860794067383,
        4.128137588500977,
        -0.5118268728256226,
        1.0
      ],
      "name": "Front S Pipe"
    },
    {
      "mesh": 13,
      "name": "Front S Pipe_Material.002_0"
    },
    {
      "children": [
        48
      ],
      "matrix": [
        0.9998807049853672,
        -0.015440896925765892,
        0.0001878584757592818,
        0.0,
        0.00967997158867859,
        0.6172587318237659,
        -0.7867005260699864,
        0.0,
        0.012031405167110577,
        0.7866085419694482,
        0.6173346001738755,
        0.0,
        0.5131747722625732,
        3.790071487426758,
        0.18297338485717773,
        1.0
      ],
      "name": "Back S Pipe"
    },
    {
      "mesh": 14,
      "name": "Back S Pipe_Material.002_0"
    },
    {
      "children": [
        50
      ],
      "matrix": [
        4.245914059748832,
        -0.06556854335258065,
        0.0007977205467975257,
        0.0,
        0.02539705425291587,
        1.5967247182990665,
        -3.934705991127711,
        0.0,
        0.015775260717505218,
        1.0266022391167053,
        0.4167024982065277,
        0.0,
        -0.2575972080230713,
        -0.9264764785766602,
        -0.6837014555931091,
        1.0
      ],
      "name": "Hip"
    },
    {
      "mesh": 15,
      "name": "Hip_Material_0"
    },
    {
      "children": [
        52
      ],
      "matrix": [
        0.5915246738973836,
        -0.3110337534856794,
        0.7438794017602609,
        0.0,
        1.977941318266833,
        0.5198072842892739,
        -1.3554932159275246,
        0.0,
        0.014236711954632497,
        0.9264841907825466,
        0.37606430336144725,
        0.0,
        0.03336668014526367,
        -2.5411205291748047,
        -0.9320744872093201,
        1.0
      ],
      "name": "BackLeftLeg"
    },
    {
      "mesh": 16,
      "name": "BackLeftLeg_Material_0"
    },
    {
      "children": [
        54
      ],
      "matrix": [
        5.366321792224427,
        -3.407212272934944e-07,
        7.22253187036702,
        0.0,
        17.72070480383317,
        3.1733502292653684e-06,
        -13.166436101520807,
        0.0,
        -8.349790388609404e-07,
        8.997909545898338,
        1.0448614320496164e-06,
        0.0,
        33.26910400390625,
        -24.543062210083008,
        3.376483917236328,
        1.0
      ],
      "name": "Front left leg.001"
    },
    {
      "mesh": 17,
      "name": "Front left leg.001_Material_0"
    }
  ],
  "samplers": [
    {
      "magFilter": 9729,
      "minFilter": 9987,
      "wrapS": 10497,
      "wrapT": 10497
    }
  ],
  "scene": 0,
  "scenes": [
    {
      "name": "Sketchfab_Scene",
      "nodes": [
        0
      ]
    }
  ],
  "skins": [
    {
      "inverseBindMatrices": 72,
      "joints": [
        11,
        12,
        13,
        14,
        15,
        22,
        23,
        24,
        29,
        30,
        31,
        36,
        37,
        38
      ],
      "skeleton": 11
    }
  ],
  "textures": [
    {
      "sampler": 0,
      "source": 0
    },
    {
      "sampler": 0,
      "source": 1
    },
    {
      "sampler": 0,
      "source": 2
    }
  ]
}
